<?xml version="1.0" encoding="utf-8"?>
<!-- Generator: Adobe Illustrator 24.0.0, SVG Export Plug-In . SVG Version: 6.00 Build 0)  -->
<svg version="1.1" id="图层_2" xmlns="http://www.w3.org/2000/svg" xmlns:xlink="http://www.w3.org/1999/xlink" x="0px" y="0px"
	 viewBox="0 0 28 12" style="enable-background:new 0 0 28 12;" xml:space="preserve">
<style type="text/css">
	.st0{fill:#F99841;}
</style>
<path id="Rectangle-24备份" class="st0" d="M26.009,0C27.108,0,28,0.902,28,2.009v7.983C28,11.101,27.1,12,26.009,12H1.991
	C0.892,12,0,11.098,0,9.991V2.009C0,0.899,0.9,0,1.991,0H26.009z M26.009,0.8H1.991c-0.611,0-1.123,0.477-1.185,1.085L0.8,2.009
	v7.983c0,0.626,0.471,1.14,1.07,1.202L1.991,11.2h24.018c0.611,0,1.123-0.477,1.185-1.085L27.2,9.991V2.009
	c0-0.626-0.471-1.14-1.07-1.202L26.009,0.8z"/>
<g id="有争议" transform="translate(2.296000, 2.368000)">
	<path id="形状" class="st0" d="M2.64,3.088h2.912v0.64H2.64V3.088z M5.552,4.448v0.624H2.64V4.448H5.552z M5.552,5.792V6.44
		c0,0.176-0.096,0.264-0.288,0.264c-0.256,0-0.536-0.016-0.832-0.04l0.2,0.752h0.896C6.064,7.4,6.336,7.168,6.336,6.704V2.368H2.72
		c0.136-0.232,0.264-0.464,0.392-0.704H7.28V0.856H3.464c0.088-0.24,0.168-0.488,0.248-0.744L2.856,0.008
		C2.768,0.296,2.664,0.576,2.544,0.856H0.216v0.808h1.928C1.616,2.576,0.904,3.392,0,4.104l0.544,0.712
		C1.024,4.424,1.464,4,1.856,3.552v3.904H2.64V5.792H5.552z"/>
	<path id="形状_1_" class="st0" d="M14.312,5.68V4.208h0.968V3.44h-0.968V2h-1.504c0.288-0.2,0.576-0.432,0.872-0.704V0.672
		h-2.928c0.104-0.16,0.208-0.32,0.312-0.488L10.232,0C9.664,0.896,9,1.584,8.24,2.08l0.512,0.616C8.92,2.584,9.088,2.456,9.256,2.32
		v0.464h1.912V3.44H8.152v0.768h3.016v0.68H9.12V5.68h2.048v0.512c0,0.312-0.152,0.472-0.456,0.472c-0.32,0-0.648-0.024-0.984-0.056
		l0.176,0.8h1.104c0.656,0,0.984-0.344,0.984-1.016V5.68H14.312z M11.624,2H9.616c0.192-0.176,0.376-0.368,0.552-0.576h2.296
		C12.176,1.632,11.896,1.824,11.624,2z M11.992,2.784h1.496V3.44h-1.496V2.784z M11.992,4.208h1.496v0.68h-1.496V4.208z"/>
	<path id="形状_2_" class="st0" d="M20.408,0.008l-0.632,0.456c0.448,0.624,0.816,1.192,1.088,1.704l0.656-0.456
		C21.264,1.224,20.888,0.656,20.408,0.008z M22.232,0.456c-0.224,1.6-0.664,2.928-1.328,3.984c-0.664-0.952-1.176-2.136-1.544-3.544
		l-0.712,0.408c0.44,1.504,1.024,2.784,1.76,3.824c-0.592,0.704-1.312,1.256-2.168,1.648l0.456,0.72
		c0.864-0.4,1.616-0.96,2.256-1.68c0.6,0.688,1.288,1.248,2.072,1.68l0.496-0.728c-0.776-0.392-1.464-0.928-2.064-1.616
		c0.784-1.16,1.312-2.672,1.568-4.528L22.232,0.456z M17.152,0.12l-0.584,0.552c0.552,0.416,0.976,0.816,1.28,1.192l0.576-0.584
		C18.072,0.896,17.648,0.512,17.152,0.12z M16.016,2.424v0.8h1.104v2.768c0,0.176-0.08,0.312-0.224,0.424l0.32,0.76
		c0.552-0.376,1.072-0.8,1.56-1.264l-0.232-0.88L17.912,5.64V2.424H16.016z"/>
</g>
</svg>
