<?xml version="1.0" standalone="no"?>
<!DOCTYPE svg PUBLIC "-//W3C//DTD SVG 20010904//EN"
 "http://www.w3.org/TR/2001/REC-SVG-20010904/DTD/svg10.dtd">
<svg version="1.0" xmlns="http://www.w3.org/2000/svg"
 width="4320.000000pt" height="4320.000000pt" viewBox="0 0 4320.000000 4320.000000"
 preserveAspectRatio="xMidYMid meet">
<metadata>
Created by potrace 1.14, written by Peter Selinger 2001-2017
</metadata>
<g transform="translate(0.000000,4320.000000) scale(0.100000,-0.100000)"
fill="#000000" stroke="none">
<path d="M18275 43177 c-172 -126 -567 -468 -835 -722 -52 -49 -192 -180 -310
-290 -218 -203 -301 -283 -853 -819 -575 -561 -1096 -1130 -1437 -1571 -158
-206 -330 -453 -330 -476 0 -10 -198 81 -530 244 -140 69 -352 170 -470 225
-118 55 -318 148 -445 207 -314 147 -1170 520 -1390 607 -99 39 -290 116 -425
171 -596 241 -1014 389 -1235 439 -140 31 -162 33 -330 33 -167 0 -187 -2
-280 -28 -321 -90 -580 -322 -831 -742 -159 -267 -267 -526 -443 -1065 -99
-303 -145 -463 -242 -850 -80 -319 -207 -914 -250 -1165 -11 -66 -31 -172 -44
-235 -13 -63 -31 -171 -40 -240 -9 -69 -23 -151 -31 -182 -22 -86 -32 -144
-49 -285 -8 -70 -29 -213 -45 -318 -62 -398 -112 -795 -140 -1105 -5 -63 -17
-171 -25 -240 -19 -164 -52 -484 -60 -585 -4 -44 -13 -120 -20 -170 -22 -143
-43 -362 -60 -615 -9 -129 -29 -352 -45 -495 -16 -143 -36 -354 -44 -470 -9
-115 -22 -273 -31 -350 -8 -78 -19 -224 -25 -325 -5 -102 -12 -203 -15 -225
-3 -22 -10 -125 -15 -230 -5 -104 -14 -282 -20 -395 -33 -656 -31 -642 -85
-689 -18 -16 -77 -55 -132 -86 -490 -286 -1440 -856 -1588 -953 -343 -223
-695 -526 -827 -712 -52 -73 -108 -180 -133 -255 -23 -67 -31 -218 -15 -297
28 -148 122 -312 249 -437 189 -187 632 -432 1261 -699 91 -38 251 -107 355
-152 105 -45 312 -130 460 -189 624 -249 686 -272 1180 -436 121 -40 258 -89
305 -109 47 -19 117 -42 155 -52 39 -9 74 -20 79 -25 13 -11 -7 -80 -85 -299
-39 -107 -80 -224 -91 -260 -30 -94 -190 -550 -255 -725 -30 -82 -101 -285
-158 -450 -57 -165 -161 -469 -233 -675 -71 -206 -139 -404 -150 -440 -11 -36
-88 -272 -171 -525 -82 -253 -187 -579 -232 -725 -82 -269 -133 -430 -194
-620 -19 -58 -48 -154 -65 -215 -16 -60 -48 -168 -69 -240 -76 -254 -250 -863
-297 -1035 -68 -252 -117 -438 -154 -575 -17 -66 -49 -181 -70 -255 -56 -193
-107 -384 -125 -465 -9 -38 -29 -115 -45 -170 -15 -55 -40 -149 -54 -210 -14
-60 -51 -204 -81 -320 -30 -115 -67 -259 -81 -320 -14 -60 -41 -173 -60 -250
-19 -77 -43 -183 -53 -235 -23 -122 -84 -401 -121 -555 -16 -66 -36 -160 -45
-210 -9 -49 -25 -125 -36 -169 -28 -109 -106 -497 -128 -636 -63 -391 -66
-419 -66 -645 0 -235 10 -315 60 -457 28 -83 102 -210 157 -273 41 -46 123
-95 161 -95 39 0 25 -34 -79 -192 -267 -407 -354 -553 -525 -883 -412 -798
-738 -1754 -824 -2414 -36 -280 -42 -376 -34 -611 17 -504 116 -905 335 -1350
90 -183 141 -269 267 -450 121 -173 192 -262 348 -435 467 -518 994 -928 1694
-1318 241 -133 393 -205 670 -316 473 -190 777 -272 1370 -370 274 -46 421
-60 770 -72 831 -30 1409 44 2260 288 195 56 276 84 349 120 38 18 71 31 74
29 3 -3 -7 -32 -21 -63 -14 -32 -33 -85 -42 -118 -10 -33 -55 -181 -100 -330
-46 -148 -115 -378 -154 -510 -113 -386 -255 -788 -347 -982 -70 -147 -157
-209 -525 -371 -414 -183 -734 -370 -891 -520 -186 -178 -298 -374 -352 -615
-42 -187 -43 -266 -7 -442 35 -169 45 -202 108 -365 54 -139 275 -587 448
-910 69 -129 163 -310 208 -402 l82 -167 383 0 c333 -1 382 1 382 14 0 8 -5
15 -10 15 -6 0 -9 4 -8 9 2 5 -16 23 -39 40 -36 26 -42 28 -46 13 -3 -12 -9
-6 -21 21 -9 21 -14 42 -11 47 4 6 -1 10 -9 10 -18 0 -50 56 -41 70 3 6 2 10
-4 10 -17 0 -481 857 -481 890 0 6 -7 19 -16 27 -8 9 -13 24 -11 35 3 10 1 15
-4 12 -5 -3 -19 16 -30 43 -11 26 -26 59 -33 73 -7 14 -11 31 -9 38 3 6 -2 12
-9 12 -8 0 -29 33 -47 73 -19 39 -38 79 -42 87 -5 8 -16 31 -25 50 -8 19 -22
50 -30 68 -9 18 -15 43 -16 55 0 39 -8 68 -17 62 -16 -9 -20 22 -8 57 7 19 16
34 22 35 5 1 12 10 16 20 11 30 11 281 -1 288 -5 3 -10 17 -10 31 0 13 -5 24
-11 24 -7 0 -9 9 -6 21 5 20 5 20 -15 3 -35 -32 26 92 69 140 127 140 381 295
748 456 66 29 189 88 273 131 84 44 155 79 158 79 3 0 2 -6 -2 -12 -4 -8 -3
-10 2 -5 5 5 9 12 9 17 0 5 34 30 75 57 109 72 192 153 261 257 71 105 95 156
191 396 33 83 138 376 143 400 7 34 78 256 85 265 4 6 7 17 7 25 0 25 56 195
66 201 6 4 7 15 3 24 -6 15 -4 16 10 5 14 -12 15 -9 9 28 -4 30 -1 54 13 86
11 24 23 62 27 85 5 32 11 41 27 41 18 0 19 5 14 48 -4 34 -1 57 12 85 10 20
20 35 23 33 2 -2 4 14 5 35 1 22 7 45 14 52 10 9 11 9 5 -2 -5 -9 -3 -12 6 -9
10 3 14 23 15 69 0 35 5 74 12 85 6 12 8 24 5 28 -3 3 -2 6 3 6 5 0 10 11 10
25 1 14 11 42 22 64 11 21 18 42 15 45 -7 6 43 168 63 209 9 16 20 25 26 21 8
-5 9 6 5 39 -4 27 -2 59 5 74 6 16 12 40 14 54 2 15 18 66 35 113 40 110 73
140 285 261 88 49 191 110 229 134 39 25 76 46 83 47 8 2 21 9 30 17 10 8 29
17 45 21 15 3 27 13 27 21 0 8 6 15 14 15 7 0 19 13 26 30 7 16 21 32 31 35
10 4 19 11 19 17 0 6 3 8 7 5 10 -11 53 42 53 66 1 40 33 90 65 100 17 6 33
15 37 20 3 6 22 11 41 11 19 1 33 3 31 6 -9 9 114 38 140 33 14 -3 26 -1 26 5
0 5 14 15 31 21 39 14 52 14 44 1 -3 -5 7 -5 25 1 16 6 28 14 25 19 -5 8 36
28 75 35 14 2 34 9 45 14 36 17 151 61 161 61 17 0 343 168 424 218 108 67
285 187 360 245 217 167 577 535 766 782 198 260 460 717 519 907 15 48 33 92
39 97 14 12 121 -19 211 -60 184 -83 626 -225 855 -274 69 -15 136 -31 149
-36 13 -6 94 -21 180 -35 86 -14 190 -33 231 -44 41 -10 122 -26 180 -35 95
-15 136 -25 99 -25 -10 0 -15 -10 -14 -27 0 -34 51 -65 136 -83 98 -21 238 3
251 42 4 10 32 12 107 11 114 -2 164 -10 155 -24 -3 -5 2 -9 11 -9 9 0 26 -11
39 -25 18 -19 42 -28 112 -40 241 -43 656 -51 989 -19 198 19 253 28 307 52
24 11 69 22 102 26 32 4 64 10 70 13 6 4 19 6 29 5 9 -2 17 1 17 7 0 5 12 8
28 6 15 -2 37 -4 50 -4 13 -1 21 -5 18 -10 -7 -11 111 -24 229 -24 103 0 143
15 172 63 9 16 23 30 30 30 6 0 15 4 18 10 4 6 -1 7 -12 3 -13 -4 -15 -3 -8 5
6 6 42 14 81 18 l71 7 35 -44 c19 -24 74 -102 123 -174 335 -494 704 -814
1230 -1066 330 -159 832 -306 1223 -360 63 -9 92 -17 92 -26 0 -20 50 -35 95
-28 22 3 153 10 290 14 179 6 264 13 298 24 51 16 56 14 30 -15 -34 -38 9 -17
55 27 26 25 51 44 57 42 5 -2 12 -18 16 -35 9 -45 27 -62 63 -62 18 0 40 -6
49 -12 14 -12 56 -148 57 -187 1 -9 9 -34 20 -56 11 -22 19 -44 20 -48 0 -10
50 -117 111 -240 214 -428 591 -832 1099 -1178 477 -325 1276 -676 1899 -834
58 -14 119 -32 137 -40 18 -7 81 -23 141 -35 59 -11 151 -32 203 -45 52 -13
136 -31 185 -41 55 -10 98 -24 111 -35 14 -13 35 -19 67 -19 26 0 47 -4 47 -8
0 -4 24 -9 53 -10 37 -1 48 1 37 8 -11 7 -7 9 15 5 76 -13 157 -26 233 -36 45
-6 82 -15 82 -18 0 -4 17 -5 37 -3 25 3 40 0 48 -11 8 -11 35 -17 91 -21 56
-4 72 -3 54 4 -20 8 -16 9 21 5 327 -31 521 -37 1119 -31 338 3 638 8 665 11
28 3 66 2 85 -1 30 -6 32 -8 15 -15 -13 -5 0 -6 33 -4 30 3 59 8 65 12 6 4 30
8 53 8 23 1 61 11 85 23 47 22 307 66 396 67 28 0 54 3 58 7 4 4 13 4 21 1 8
-3 31 -2 51 2 28 5 33 9 22 17 -10 7 -7 8 14 5 15 -2 27 0 27 5 0 5 8 8 18 5
9 -2 28 2 42 9 52 25 217 40 231 21 3 -5 9 -2 12 7 4 11 1 16 -11 16 -14 1
-15 2 -2 9 8 5 30 12 49 16 26 6 32 4 27 -6 -4 -8 -2 -7 6 2 25 31 238 62 238
34 0 -5 5 -3 10 5 7 11 4 16 -12 20 -15 4 21 17 103 39 131 36 456 141 574
186 195 74 442 175 540 220 288 133 389 182 545 263 229 118 426 231 687 396
165 103 207 125 228 120 17 -4 25 -2 25 7 1 20 25 -39 33 -78 5 -23 3 -33 -6
-33 -7 -1 -5 -6 6 -14 28 -22 65 -151 147 -511 22 -99 47 -207 55 -240 8 -33
15 -69 15 -79 0 -18 -1 -18 -20 -1 -11 10 -20 14 -20 8 0 -5 11 -16 24 -23 20
-10 26 -23 31 -69 4 -31 11 -71 15 -89 8 -29 7 -32 -6 -21 -8 6 -17 9 -20 6
-9 -8 5 -27 20 -27 16 0 29 -44 56 -185 22 -119 95 -500 111 -579 5 -27 7 -51
4 -54 -3 -3 0 -10 5 -17 13 -16 28 -131 19 -146 -4 -6 -12 -8 -18 -5 -7 5 -11
-3 -11 -23 0 -49 8 -61 36 -51 22 9 24 7 26 -18 0 -15 0 -35 -1 -46 0 -10 3
-24 9 -31 6 -8 8 -34 5 -64 -4 -37 -3 -51 6 -49 26 6 32 -75 13 -173 -4 -19 3
-33 23 -53 20 -21 28 -38 29 -69 1 -23 4 -49 7 -57 15 -37 42 -193 51 -300 1
-14 5 -31 9 -37 4 -6 12 -46 18 -89 6 -43 14 -85 19 -94 4 -8 14 -60 20 -115
7 -55 13 -107 14 -115 2 -8 5 -22 9 -30 3 -8 13 -58 21 -110 8 -52 20 -117 25
-145 22 -109 52 -288 55 -329 2 -24 6 -48 9 -52 4 -8 15 -58 37 -174 16 -79
29 -183 32 -240 2 -44 0 -54 -12 -52 -13 2 -13 1 0 -10 9 -8 14 -27 13 -48 -2
-26 0 -30 6 -16 11 29 21 6 24 -56 1 -29 5 -56 10 -59 4 -3 14 -53 23 -110 8
-57 21 -138 29 -179 38 -196 46 -252 34 -266 -11 -14 -3 -38 11 -29 4 3 11
-21 14 -53 4 -31 12 -87 19 -124 l11 -68 3128 0 3128 0 0 7748 0 7748 -257
215 c-515 428 -890 775 -1514 1398 -801 801 -1090 1125 -2027 2271 -203 249
-382 462 -542 646 -384 442 -640 780 -640 845 0 30 35 81 132 194 191 220 441
593 567 844 237 470 413 1092 472 1668 19 185 7 574 -24 774 -29 188 -32 202
-93 424 -98 361 -239 683 -416 952 -198 302 -478 615 -718 803 -36 28 -80 63
-99 78 l-33 27 20 155 c24 180 37 801 37 1720 0 562 -9 725 -55 1015 -10 66
-21 145 -25 175 -3 30 -19 123 -35 205 -16 83 -37 192 -45 244 -20 118 -109
500 -170 726 -25 94 -66 250 -91 348 -24 98 -59 207 -76 241 l-31 64 31 88
c18 49 41 132 52 184 11 52 40 181 65 285 24 105 65 285 90 400 26 116 58 257
72 315 13 58 42 184 63 280 21 96 59 265 85 375 25 110 61 286 80 390 19 105
55 296 80 425 68 354 91 487 120 690 14 102 34 237 45 300 11 63 31 201 45
305 14 105 30 213 35 240 6 28 23 145 39 260 16 116 45 314 65 440 126 814
159 1054 221 1590 53 462 64 623 72 1100 11 681 -29 1036 -154 1385 -145 401
-352 640 -658 759 -143 57 -229 77 -376 92 -177 17 -499 -5 -684 -46 -38 -8
-126 -27 -195 -41 -134 -27 -159 -33 -375 -89 -399 -104 -949 -288 -1835 -615
-58 -21 -163 -60 -235 -85 -71 -26 -197 -74 -280 -107 -82 -33 -208 -82 -280
-108 -182 -67 -563 -216 -730 -285 -77 -32 -230 -95 -340 -140 -310 -128 -925
-399 -1315 -580 -80 -37 -244 -112 -365 -167 -121 -54 -259 -121 -307 -148
-107 -61 -128 -62 -251 -14 -178 70 -1008 344 -1264 418 -227 66 -532 144
-1013 260 -288 69 -855 175 -1215 227 -115 16 -238 34 -273 39 -35 6 -161 21
-280 35 -119 14 -293 34 -387 44 -740 86 -1558 121 -2395 103 -251 -5 -411 -5
-420 1 -18 11 -56 61 -159 210 -43 62 -179 248 -302 413 -233 314 -422 575
-631 874 -251 358 -287 408 -459 640 -97 130 -227 297 -290 371 -125 149 -387
414 -496 502 l-70 57 -1229 0 -1229 -1 -30 -22z m8061 -11370 c187 -96 386
-200 444 -232 58 -32 184 -100 280 -153 381 -206 1029 -579 1435 -827 110 -67
256 -154 325 -195 223 -130 473 -280 557 -333 45 -29 111 -67 146 -86 111 -59
112 -60 110 -138 -2 -71 -14 -123 -106 -458 -54 -196 -177 -669 -244 -935 -18
-74 -51 -202 -72 -285 -72 -274 -119 -459 -135 -530 -9 -38 -29 -122 -46 -185
-35 -137 -106 -430 -115 -480 -4 -19 -46 -197 -95 -395 -135 -553 -197 -820
-261 -1120 -16 -77 -50 -214 -76 -304 l-46 -163 -41 6 c-23 3 -77 13 -121 21
-51 9 -209 18 -440 25 -198 6 -398 15 -445 21 -47 6 -110 13 -140 15 -30 2
-77 9 -104 14 -95 20 -244 31 -531 40 -159 4 -344 15 -410 24 -308 40 -493 56
-775 66 -329 11 -389 16 -700 60 -133 18 -292 33 -450 40 -320 14 -481 28
-555 47 -75 19 -251 31 -655 43 -286 9 -476 22 -489 35 -3 3 35 3 85 -1 l89
-6 -43 27 c-32 20 -59 27 -108 30 -68 4 -128 -10 -118 -27 4 -5 -7 -7 -28 -4
-157 26 -815 37 -934 15 -125 -23 -242 -101 -286 -191 -16 -32 -33 -58 -38
-58 -18 0 -40 -59 -40 -110 0 -75 23 -117 109 -201 109 -105 207 -149 336
-149 41 0 75 -3 75 -6 0 -4 -40 -48 -89 -99 -104 -109 -185 -229 -252 -371
-74 -155 -98 -252 -111 -439 -25 -346 35 -607 192 -842 102 -152 182 -244 284
-329 128 -106 233 -168 393 -234 192 -79 334 -110 728 -161 44 -6 289 -14 545
-19 256 -5 548 -14 650 -19 102 -6 289 -15 415 -20 127 -6 311 -15 410 -21 99
-6 344 -15 545 -20 201 -5 426 -15 500 -22 74 -7 254 -13 400 -13 296 0 410
15 600 77 112 37 297 130 385 192 69 50 208 193 257 264 17 26 53 71 80 101
27 29 56 67 65 85 8 17 22 38 29 47 20 23 90 243 104 329 13 75 11 172 -9 480
-9 130 -24 188 -83 323 -26 60 -182 286 -208 302 -6 3 -15 15 -20 25 -9 17 -8
19 7 13 10 -4 33 -16 51 -26 39 -23 179 -34 521 -40 152 -3 216 -7 219 -16 5
-16 -25 -185 -54 -302 -13 -53 -33 -154 -44 -225 -12 -71 -34 -183 -51 -249
-35 -147 -84 -365 -169 -755 -17 -74 -39 -186 -50 -249 -12 -63 -34 -167 -50
-230 -16 -64 -32 -133 -36 -153 -3 -21 -10 -38 -15 -38 -32 0 -89 -191 -135
-450 -41 -236 -68 -344 -98 -390 -20 -32 -53 -107 -93 -215 -8 -22 -15 -55
-15 -72 0 -18 -3 -33 -8 -33 -4 0 -10 -24 -12 -54 -3 -39 -12 -65 -31 -90 -15
-19 -27 -38 -27 -41 0 -4 -6 -21 -14 -38 -21 -48 -46 -161 -46 -208 0 -24 -7
-70 -16 -103 -64 -249 -75 -336 -44 -336 14 0 12 -124 -1 -137 -7 -7 -13 -59
-14 -135 -2 -68 -6 -158 -9 -200 -4 -49 -3 -78 3 -78 15 0 23 -61 12 -95 -10
-31 -14 -20 -11 27 3 45 -18 40 -36 -9 -10 -27 -21 -53 -26 -60 -5 -6 -11 -44
-13 -83 -2 -40 -7 -75 -10 -78 -7 -8 26 -42 36 -37 4 3 6 -7 3 -22 -7 -38 -14
-42 -14 -8 0 26 -2 28 -15 14 -14 -14 -14 -19 1 -49 16 -31 16 -40 -5 -164
-29 -169 -31 -177 -44 -169 -5 3 -7 1 -3 -5 7 -12 -10 -123 -54 -362 -16 -85
-45 -249 -65 -365 -19 -115 -46 -264 -60 -330 -13 -66 -31 -176 -41 -245 -9
-69 -21 -129 -25 -135 -6 -5 -9 -1 -9 10 0 10 -21 -14 -47 -56 -40 -62 -48
-82 -48 -121 0 -27 -1 -48 -3 -48 -1 0 -35 9 -74 20 -40 11 -129 27 -198 35
-445 54 -914 128 -1140 180 -914 210 -1694 522 -1996 798 -157 143 -290 424
-361 762 -23 112 -27 154 -27 300 0 152 3 186 31 323 61 293 140 519 288 817
97 196 155 291 280 456 41 53 83 114 94 135 50 93 6 226 -99 299 -53 37 -110
42 -182 16 -171 -59 -324 -243 -506 -608 -135 -269 -214 -476 -302 -794 -83
-298 -82 -292 -78 -681 l4 -343 37 -129 c81 -281 196 -564 287 -707 17 -25 30
-51 30 -58 0 -16 -108 -65 -200 -91 -92 -25 -216 -60 -515 -144 -388 -110
-407 -116 -495 -137 -47 -11 -152 -38 -235 -59 -82 -21 -177 -44 -210 -50 -33
-7 -121 -27 -195 -45 -208 -52 -432 -95 -459 -88 -17 4 -22 3 -17 -5 4 -7 0
-13 -11 -14 -26 -2 -60 -7 -133 -19 -72 -11 -106 -15 -224 -24 -44 -3 -143
-20 -220 -36 -136 -30 -154 -31 -491 -40 -192 -4 -361 -11 -375 -14 -14 -3
-177 -6 -364 -6 -186 -1 -350 -4 -365 -8 -32 -9 -243 12 -332 33 -159 37 -399
151 -479 227 -98 94 -132 210 -132 454 -1 296 50 483 247 905 88 190 130 269
308 585 175 309 207 377 207 436 0 87 -58 180 -142 229 -184 105 -306 -34
-709 -815 -132 -256 -200 -409 -307 -686 -153 -400 -202 -567 -202 -696 0 -59
-15 -80 -63 -87 -18 -2 -97 -14 -177 -25 -126 -17 -311 -59 -271 -60 8 -1 12
-3 9 -6 -27 -27 -1320 -38 -1668 -14 -541 36 -1292 187 -1835 367 -514 171
-828 297 -1180 472 -906 450 -1582 1002 -2009 1640 -86 128 -231 411 -294 570
-40 102 -102 310 -102 340 0 13 1 13 10 0 8 -12 10 -11 10 7 0 12 -5 34 -10
48 -6 15 -15 59 -20 98 -17 119 -33 182 -41 161 -14 -38 -24 103 -24 326 1
231 11 373 25 350 5 -8 10 1 14 26 11 61 22 73 37 41 24 -53 48 -31 70 66 8
31 16 57 19 57 4 0 5 15 3 33 -1 17 -4 50 -5 72 -3 52 -30 75 -43 36 -7 -22
-30 -18 -39 6 -9 23 4 84 16 77 6 -4 8 2 3 15 -4 14 -1 27 10 37 10 11 13 20
7 26 -10 10 5 88 18 98 11 8 30 47 30 62 0 10 -3 9 -11 -2 -8 -12 -9 -11 -5 5
20 83 61 205 67 205 5 0 6 6 3 13 -10 26 130 381 244 618 308 645 743 1214
1176 1538 120 90 294 194 381 227 66 25 82 27 310 33 190 6 248 11 278 24 20
9 37 14 37 11 0 -4 14 8 79 70 77 74 102 194 57 276 -88 160 -91 187 -42 298
19 45 42 110 51 144 9 35 54 187 100 338 128 422 183 630 325 1235 23 99 60
248 81 330 21 83 73 285 114 450 128 510 144 565 171 616 34 62 89 99 254 168
69 30 215 93 325 141 110 48 324 141 475 205 151 65 390 169 530 232 140 63
323 143 405 178 83 35 227 95 320 135 94 40 305 126 470 191 165 66 345 138
400 160 254 103 590 235 689 270 102 37 109 38 122 22 7 -10 11 -25 8 -33 -20
-51 -20 -68 -2 -125 11 -33 24 -63 30 -66 15 -10 -22 -379 -41 -404 -25 -33
-58 -254 -41 -265 11 -7 4 -211 -21 -660 -14 -255 -6 -504 20 -621 40 -179
113 -320 207 -398 63 -52 210 -119 288 -131 132 -20 319 -29 421 -20 55 6 161
14 235 20 74 6 194 18 265 27 72 10 149 18 173 18 23 0 42 3 42 6 0 18 419 69
475 58 61 -11 70 -17 220 -129 458 -344 889 -584 1605 -895 270 -117 602 -237
745 -269 84 -19 203 -36 320 -45 55 -5 80 -9 56 -10 -54 -1 -50 -8 13 -20 54
-10 134 7 100 20 -14 6 -10 8 14 8 49 1 214 47 311 86 318 130 590 362 1002
855 144 173 440 548 539 685 24 33 80 110 125 170 309 417 778 1106 1065 1565
53 85 131 209 172 275 101 160 439 715 513 840 33 55 82 136 111 180 28 44 93
150 144 235 51 85 99 165 107 178 7 12 22 22 32 22 10 0 171 -78 357 -173z
m10564 -5307 c170 -35 426 -141 590 -246 232 -148 420 -307 586 -495 281 -317
469 -640 577 -990 50 -160 63 -215 88 -374 19 -125 22 -179 22 -515 0 -359 -1
-383 -27 -560 -31 -210 -102 -497 -175 -710 -215 -630 -653 -1234 -1225 -1690
-219 -174 -596 -399 -846 -505 -81 -35 -333 -112 -505 -155 -71 -18 -154 -43
-184 -56 -29 -13 -55 -24 -57 -24 -10 0 -2 131 17 290 11 96 24 221 29 276 10
121 20 179 29 167 10 -14 66 -14 281 -2 225 13 291 25 555 103 220 65 288 96
439 196 316 210 469 343 670 585 357 429 547 791 710 1355 67 231 71 266 71
595 0 254 -3 308 -23 435 -52 325 -138 576 -290 845 -70 123 -244 383 -304
452 -121 142 -316 303 -531 437 -228 144 -408 222 -655 287 -154 40 -655 87
-691 65 -5 -4 -12 -2 -16 4 -4 6 -10 8 -15 5 -13 -8 -21 60 -14 130 5 45 12
68 23 74 9 5 61 16 115 25 78 13 134 16 270 11 103 -4 189 -2 216 4 58 13 139
7 270 -19z m-11985 -2830 c154 -49 216 -83 273 -145 103 -112 138 -244 92
-340 -28 -58 -133 -162 -200 -199 -71 -38 -140 -37 -365 7 -103 21 -240 40
-320 46 -158 11 -214 25 -284 70 -78 51 -156 185 -156 271 0 125 145 292 276
320 24 5 166 8 314 6 l270 -3 100 -33z m-15697 -2550 c-1 -23 -26 82 -26 110
0 14 6 -2 14 -35 7 -33 13 -67 12 -75z m18149 -652 c-3 -8 -6 -5 -6 6 -1 11 2
17 5 13 3 -3 4 -12 1 -19z m-56 -815 c-8 -15 -10 -15 -11 -2 0 17 10 32 18 25
2 -3 -1 -13 -7 -23z m-24 -105 c-3 -8 -6 -5 -6 6 -1 11 2 17 5 13 3 -3 4 -12
1 -19z m-40 -210 c-3 -8 -6 -5 -6 6 -1 11 2 17 5 13 3 -3 4 -12 1 -19z m-7
-55 c0 -10 -5 -25 -10 -33 -7 -11 -10 -7 -10 18 0 17 5 32 10 32 6 0 10 -8 10
-17z m-3808 -1887 c35 -13 87 -36 115 -50 79 -40 434 -183 548 -221 153 -51
255 -100 255 -123 0 -11 -9 -55 -19 -98 -11 -44 -22 -106 -26 -139 -3 -33 -9
-73 -12 -90 -5 -27 -7 -28 -14 -10 -7 19 -8 19 -8 -1 -1 -27 -38 -74 -57 -74
-8 0 -17 -6 -20 -14 -3 -8 -12 -12 -20 -9 -7 3 -30 -4 -49 -16 -20 -12 -42
-21 -49 -21 -8 0 -49 27 -93 59 -161 119 -386 239 -563 298 -160 53 -418 130
-548 163 -171 43 -352 113 -352 137 0 7 6 13 13 14 23 1 43 7 158 42 62 20
125 38 139 41 47 10 205 55 247 70 22 8 44 12 47 9 3 -3 11 -1 18 4 21 17 78
32 153 42 39 4 71 9 72 10 2 0 31 -10 65 -23z m-7403 -483 c-1 -134 -14 -295
-18 -211 -1 38 -8 47 -65 88 -28 20 -36 32 -37 60 -3 69 -13 95 -36 95 -13 0
-22 5 -22 10 0 6 -10 13 -23 17 -18 5 -14 6 17 8 36 1 38 2 16 11 -14 5 -45 6
-70 2 -44 -7 -45 -7 -16 -14 23 -5 25 -7 8 -8 -12 0 -25 -5 -28 -11 -3 -5 -15
-10 -26 -10 -11 0 -17 5 -14 10 4 6 -6 10 -23 10 -20 0 -35 8 -46 24 -15 24
-15 25 17 29 28 3 27 4 -13 7 -44 4 123 14 293 18 l87 2 -1 -137z m9001 -78
c41 -10 104 -26 140 -36 36 -10 106 -25 155 -33 137 -23 209 -37 215 -43 3 -3
-13 -2 -35 2 l-40 7 24 -21 c19 -17 21 -21 8 -21 -10 0 -17 3 -17 8 0 4 -20 6
-45 4 -54 -5 -50 -22 6 -22 21 0 48 -5 59 -12 15 -10 26 -10 53 0 18 7 46 12
61 12 18 0 25 4 20 11 -5 8 0 10 17 6 13 -3 57 -9 97 -13 47 -4 69 -10 60 -15
-10 -7 -10 -9 2 -9 8 0 22 -13 31 -28 21 -37 131 -72 250 -79 100 -7 151 1
175 25 15 14 37 17 128 17 137 0 263 -15 226 -26 -22 -6 -20 -7 13 -8 29 -1
37 -5 35 -17 -2 -10 3 -19 11 -22 10 -3 11 0 5 9 -6 11 -4 11 10 -1 16 -12 18
-24 13 -85 -4 -39 -13 -84 -21 -100 -42 -87 -53 -261 -20 -337 15 -34 15 -42
-1 -115 -19 -87 -42 -138 -80 -179 -14 -15 -25 -33 -25 -40 0 -8 -7 -14 -16
-14 -10 0 -14 -6 -11 -14 3 -8 -45 10 -111 41 -108 51 -214 95 -351 144 -95
33 -342 78 -501 91 -85 6 -157 15 -160 19 -3 4 -30 10 -60 13 -30 3 -93 9
-140 14 -93 10 -195 -2 -218 -24 -7 -8 -16 -14 -20 -14 -4 0 -21 -14 -39 -30
-23 -22 -51 -34 -100 -44 -37 -8 -88 -22 -112 -30 -59 -21 -84 -21 -77 2 2 9
14 67 26 127 12 61 25 115 29 120 4 6 8 22 9 37 1 15 9 46 18 70 9 24 22 107
29 185 15 174 40 273 66 273 20 0 27 37 11 56 -5 5 -2 44 6 88 l15 79 51 -6
c28 -3 85 -13 126 -22z m-9535 -11 c9 3 13 2 10 -4 -6 -9 7 -14 31 -11 6 1 11
-6 11 -14 0 -18 4 -19 -50 5 -25 11 -48 28 -51 37 -6 15 -5 15 13 -1 11 -10
27 -16 36 -12z m5685 6 c10 -6 11 -10 3 -10 -7 0 -13 -6 -13 -13 0 -7 -11 -29
-25 -50 -14 -20 -22 -37 -17 -37 5 0 7 -43 6 -95 -3 -70 -9 -108 -26 -147 -49
-116 -89 -150 -169 -145 -53 4 -121 -12 -113 -25 10 -16 -959 0 -1010 17 -23
7 -59 16 -81 20 -58 10 -225 14 -225 5 0 -12 -66 -22 -168 -25 -67 -2 -92 0
-89 8 2 7 13 11 24 9 11 -1 30 2 44 7 24 10 24 10 -6 12 -16 1 -38 1 -49 0
-14 -1 -16 2 -8 11 13 16 -2 18 -168 19 -68 0 -126 -3 -127 -8 -9 -23 -22 -34
-47 -39 -20 -3 -25 -1 -20 7 5 9 0 10 -17 5 -53 -16 -79 -17 -79 -5 0 10 -3
10 -12 1 -7 -7 -23 -12 -36 -12 -14 0 -22 -5 -20 -12 6 -18 39 -22 49 -6 6 10
9 10 9 1 0 -7 5 -13 11 -13 5 0 8 4 5 8 -3 5 21 10 52 11 31 1 64 3 72 3 43 3
122 -3 117 -9 -4 -3 -20 -6 -37 -5 -21 0 -28 -3 -23 -11 5 -9 3 -9 -8 0 -17
13 -69 6 -69 -11 0 -8 -2 -8 -8 0 -10 16 -79 27 -87 14 -9 -15 -95 -13 -95 3
0 17 -72 49 -93 41 -10 -4 -16 -12 -13 -19 8 -21 -110 -30 -137 -11 -60 42
-59 40 -41 79 9 19 26 40 38 45 128 61 148 64 456 62 244 -2 252 -2 439 -19
79 -8 148 -8 222 -1 115 11 163 23 194 50 38 32 109 52 204 58 82 4 95 3 103
-13 9 -15 20 -16 86 -10 68 6 131 29 117 43 -7 8 27 31 47 32 9 0 18 5 20 10
2 6 43 17 92 25 49 8 105 20 125 26 20 7 50 12 68 11 18 -1 33 3 33 8 0 9 63
24 168 41 31 5 102 22 157 38 108 31 151 36 175 21z m-5540 -50 c0 -12 5 -17
14 -14 8 3 17 1 21 -5 3 -6 15 -11 26 -11 14 0 19 -7 19 -29 0 -28 24 -49 34
-32 7 11 59 1 68 -13 4 -6 8 -21 8 -33 0 -12 12 -31 28 -43 24 -20 24 -20 2
-7 -14 8 -56 34 -95 59 -38 25 -100 62 -137 82 -38 21 -68 39 -68 41 0 1 7 6
16 9 8 3 12 2 9 -4 -9 -15 5 -12 21 5 21 21 34 19 34 -5z m-807 -291 c70 -9
335 -106 482 -175 208 -98 382 -227 627 -462 182 -174 275 -246 404 -308 41
-19 74 -37 74 -38 0 -2 -34 -2 -74 0 -83 4 -66 14 -167 -93 -15 -16 -63 -53
-108 -83 -66 -44 -92 -69 -132 -129 -66 -97 -175 -321 -194 -396 -17 -67 -20
-241 -5 -250 6 -3 10 -18 10 -32 0 -15 16 -59 35 -100 19 -41 35 -77 35 -82 0
-4 9 -16 20 -26 11 -10 20 -26 20 -35 0 -16 51 -101 77 -128 7 -7 13 -17 13
-21 0 -4 25 -33 55 -66 30 -32 55 -61 55 -64 1 -21 189 -181 212 -181 10 0 18
-7 18 -15 0 -7 37 -45 83 -83 182 -153 517 -495 762 -780 54 -63 161 -177 239
-255 274 -275 506 -433 686 -467 79 -15 673 -52 855 -54 151 -1 167 1 290 32
402 103 615 206 1145 553 172 113 317 207 468 303 98 62 207 145 352 266 122
103 339 280 418 342 54 43 77 69 134 153 23 33 57 78 75 100 18 22 55 69 81
105 26 36 72 88 101 115 48 44 43 35 -43 -70 -166 -204 -208 -263 -353 -495
-258 -415 -400 -705 -544 -1113 -93 -264 -182 -648 -221 -957 -17 -141 -17
-790 0 -915 56 -400 118 -664 245 -1041 l64 -191 -33 -1 c-19 -1 -60 -8 -91
-16 -108 -28 -237 -46 -473 -67 -215 -19 -275 -21 -695 -14 -724 10 -830 17
-1297 90 -645 100 -1175 232 -1548 386 -154 63 -276 124 -283 142 -3 7 -1 36
4 63 10 47 58 375 60 398 0 6 5 0 10 -13 9 -22 10 -22 34 -7 32 21 79 20 101
-1 9 -10 32 -41 50 -69 38 -59 86 -93 234 -163 104 -48 413 -175 520 -213 225
-79 577 -171 795 -208 94 -16 211 -36 260 -45 291 -51 561 -47 786 14 244 66
492 173 624 271 135 100 258 269 311 430 49 144 59 216 44 309 -27 170 -124
395 -213 496 -78 90 -237 191 -415 264 -273 111 -542 134 -1007 86 -291 -31
-673 -41 -935 -26 -151 8 -206 16 -297 40 -140 38 -258 47 -383 31 -114 -15
-163 -32 -256 -92 -38 -25 -80 -48 -91 -52 -23 -7 -65 -57 -84 -100 -16 -34
-29 -33 -30 2 -1 20 -3 17 -8 -13 -5 -29 -11 10 -24 145 -30 295 -61 465 -138
735 -152 533 -418 1020 -828 1515 -170 206 -475 506 -736 724 -252 210 -695
521 -910 638 -138 76 -171 90 -277 124 -43 14 -78 29 -78 35 0 5 12 28 27 52
15 23 116 222 226 442 254 511 385 760 419 798 l28 29 117 -7 c65 -4 148 -11
186 -16z m4280 -166 c-7 -2 -21 -2 -30 0 -10 3 -4 5 12 5 17 0 24 -2 18 -5z
m-196 -69 c-3 -3 -12 -4 -19 -1 -8 3 -5 6 6 6 11 1 17 -2 13 -5z m56 -1 c-7
-2 -21 -2 -30 0 -10 3 -4 5 12 5 17 0 24 -2 18 -5z m2560 -498 c176 -40 209
-44 451 -60 391 -27 639 -74 1006 -192 146 -47 283 -95 305 -106 35 -18 71
-29 178 -55 25 -6 16 -13 -100 -77 -214 -117 -562 -360 -765 -533 -128 -109
-381 -347 -487 -456 -40 -42 -75 -75 -77 -74 -1 2 30 37 69 78 88 93 118 151
169 325 44 148 0 442 -95 635 -34 71 -59 102 -147 191 -93 94 -113 109 -175
133 -105 41 -155 67 -155 81 0 7 -20 21 -45 32 -25 10 -43 23 -41 29 5 12
-100 41 -110 31 -4 -3 -13 0 -21 8 -8 8 -29 15 -46 15 -20 0 -27 -3 -19 -8 7
-5 -32 -6 -85 -4 -54 2 -100 7 -103 12 -3 4 -19 10 -35 13 -17 2 26 5 95 5
100 2 146 -3 233 -23z m13577 -316 c62 -52 90 -72 530 -369 664 -448 863 -604
1203 -939 255 -251 427 -464 639 -791 136 -210 288 -499 368 -700 89 -223 214
-634 254 -840 65 -327 83 -470 97 -735 14 -274 6 -726 -16 -894 -43 -339 -210
-931 -345 -1227 -102 -225 -137 -297 -173 -364 -22 -41 -44 -76 -49 -78 -4 -2
-8 -11 -8 -20 0 -9 -9 -28 -20 -42 -11 -14 -20 -28 -20 -32 0 -4 -26 -50 -57
-103 -39 -67 -61 -94 -71 -90 -10 4 -12 0 -8 -11 7 -19 -41 -107 -54 -99 -4 3
-13 -9 -19 -25 -16 -47 -144 -232 -151 -220 -4 7 -14 1 -24 -15 -10 -15 -15
-29 -12 -33 3 -3 6 0 6 6 0 7 5 12 11 12 5 0 -2 -16 -17 -35 -14 -19 -33 -35
-41 -35 -8 0 -12 -4 -9 -9 3 -5 -3 -20 -15 -32 -11 -13 -17 -17 -13 -9 4 9 3
12 -2 7 -5 -5 -9 -14 -9 -20 0 -5 -13 -17 -28 -26 -33 -19 -67 -69 -60 -87 3
-8 0 -14 -5 -14 -6 0 -19 -13 -28 -30 -13 -21 -20 -26 -26 -17 -5 8 -8 6 -8
-7 0 -21 -57 -89 -76 -92 -19 -3 -116 -110 -131 -143 -12 -28 -41 -58 -52 -53
-3 1 -6 -2 -6 -8 0 -5 -43 -53 -96 -107 -122 -124 -224 -222 -215 -205 11 20
-1 14 -31 -15 -15 -14 -22 -23 -14 -18 9 5 12 3 9 -6 -3 -8 -11 -14 -19 -14
-20 -1 -40 -15 -34 -25 10 -17 -380 -330 -675 -541 -449 -320 -1153 -706
-1680 -920 -59 -24 -120 -42 -140 -42 -19 1 -46 -5 -60 -13 l-25 -14 30 5 c41
8 -119 -54 -298 -116 -94 -31 -156 -48 -169 -43 -12 4 -18 2 -14 -4 10 -16
-220 -85 -262 -78 -23 3 -30 2 -18 -2 15 -7 1 -13 -55 -26 -41 -10 -99 -26
-129 -36 -75 -25 -298 -63 -328 -55 -13 3 -21 2 -18 -4 3 -5 -11 -12 -32 -15
-20 -4 -45 -10 -56 -13 -12 -3 -16 -1 -12 6 8 13 -20 14 -49 1 -19 -8 -19 -9
-1 -9 48 -2 -3 -13 -145 -32 -129 -17 -166 -19 -229 -10 -50 7 -108 8 -175 2
-102 -10 -257 -42 -278 -59 -20 -15 -318 -32 -577 -32 -287 0 -731 18 -745 31
-5 6 -4 9 3 9 7 0 12 5 12 10 0 6 -6 10 -14 10 -8 0 -25 15 -37 33 -13 17 -28
36 -34 40 -17 13 -212 -1 -245 -18 -28 -14 -33 -45 -7 -45 6 0 8 -3 4 -6 -5
-6 -91 4 -364 41 -57 8 -113 21 -125 29 -33 20 -72 31 -64 17 11 -17 -16 -14
-246 28 -583 107 -1269 336 -1793 598 -240 120 -280 143 -455 259 -333 222
-579 445 -768 697 -134 178 -262 427 -267 518 -2 46 -17 84 -31 84 -4 0 -7 16
-5 36 1 21 -2 40 -8 43 -6 4 -18 24 -27 44 -10 20 -30 47 -46 60 -15 13 -28
30 -28 38 0 16 -2 16 -24 8 -9 -3 -16 -13 -16 -21 0 -11 -6 -13 -22 -8 -56 17
-126 27 -164 22 -40 -4 -154 -55 -185 -83 -17 -16 -33 -19 -25 -5 3 5 -3 11
-13 14 -12 3 -24 19 -30 43 -6 22 -22 57 -35 79 -14 22 -41 67 -60 100 -19 33
-48 68 -63 77 -15 10 -49 35 -76 56 -34 27 -78 48 -155 72 l-107 35 -270 7
c-327 8 -408 18 -665 84 -743 192 -1200 493 -1582 1044 -116 167 -348 603
-425 800 -111 281 -215 710 -249 1031 -29 276 -18 705 20 764 13 19 23 20 257
19 250 -2 313 -9 341 -41 9 -10 35 -54 59 -98 156 -293 278 -440 477 -569 220
-143 427 -234 599 -261 52 -8 332 11 439 30 108 20 250 66 348 114 147 72 233
137 397 301 181 181 237 249 379 461 57 85 190 278 296 431 254 366 483 724
560 875 188 367 216 721 89 1110 -105 321 -353 607 -650 752 -253 124 -578
196 -770 172 -86 -10 -263 -60 -378 -105 -230 -90 -507 -316 -717 -587 -127
-162 -145 -174 -270 -174 -175 0 -290 7 -290 18 0 29 329 318 591 519 241 185
570 387 843 519 155 74 437 188 531 214 33 9 101 30 150 46 86 28 161 45 400
91 146 27 513 32 615 7 244 -60 375 -113 519 -211 75 -52 165 -150 199 -218
30 -59 32 -71 32 -165 0 -69 -11 -170 -34 -311 -19 -115 -37 -236 -41 -269
-12 -124 -54 -397 -61 -404 -2 -2 -4 3 -4 12 0 36 -19 14 -29 -33 -14 -64 -14
-81 0 -149 10 -46 8 -99 -10 -291 -25 -273 -26 -341 -7 -431 34 -158 157 -324
273 -370 15 -6 80 -27 143 -46 108 -34 123 -36 250 -35 78 0 173 7 225 16 50
9 98 16 108 16 17 0 17 -1 3 -16 -9 -8 -21 -24 -26 -34 -9 -17 -5 -20 32 -28
33 -7 54 -5 90 8 26 10 49 15 52 12 4 -3 6 4 6 16 0 12 11 33 25 47 23 22 39
26 128 35 56 5 113 12 127 15 19 5 22 4 10 -4 -13 -10 -13 -11 0 -12 20 -2 22
-2 43 6 12 5 17 2 17 -10 0 -9 4 -14 9 -11 5 4 11 1 13 -6 5 -14 91 -12 119 2
10 6 19 17 19 24 0 7 11 18 25 24 14 6 25 18 25 26 0 10 17 16 58 21 31 4 71
11 87 15 31 9 321 64 385 73 34 5 191 33 342 62 43 8 92 12 109 8 21 -4 30 -3
26 4 -4 6 5 14 20 18 17 4 29 2 31 -4 5 -14 32 -14 52 -1 11 8 7 9 -15 5 -21
-4 -25 -3 -15 3 8 5 42 13 75 17 33 3 99 15 147 26 48 10 94 16 103 13 8 -4
21 -2 28 4 6 5 26 12 42 15 17 4 24 4 16 0 -11 -4 -11 -7 -1 -13 12 -8 48 6
60 22 3 4 26 9 50 11 25 3 52 7 60 10 31 11 110 27 270 57 91 17 187 36 213
42 27 5 74 14 105 18 31 4 66 10 77 15 16 5 17 5 5 -4 -12 -8 -12 -11 4 -17
10 -4 21 -2 25 4 4 6 22 13 41 16 42 5 70 15 70 25 0 22 223 47 260 29 50 -23
83 -27 115 -14 49 21 56 44 10 37 -5 -1 3 9 18 23 35 30 158 51 302 50 83 -1
111 -5 165 -26 414 -162 676 -248 1100 -358 80 -21 177 -48 215 -60 39 -12 88
-26 110 -31 47 -12 362 -111 455 -144 90 -31 199 -47 278 -39 72 7 119 21 108
31 -7 7 43 63 56 63 5 0 6 -16 2 -36 l-7 -36 26 17 c14 9 28 23 31 31 4 9 13
13 24 10 13 -5 23 6 42 47 31 65 32 168 3 233 -18 39 -78 102 -88 92 -3 -3
-22 11 -43 31 -21 20 -69 51 -105 69 -37 19 -67 36 -67 39 0 3 8 17 18 31 23
33 31 54 91 228 47 134 147 397 175 459 8 17 26 59 41 95 24 59 195 396 247
488 11 20 46 84 76 142 139 265 263 490 299 545 22 33 56 85 75 115 20 30 44
64 55 75 10 11 44 52 75 90 50 61 69 76 157 123 56 28 108 52 115 52 8 0 21 6
29 14 18 18 77 25 97 11 8 -5 40 -31 70 -56z m-18581 35 c10 -9 -35 -3 -49 6
-11 8 -7 9 15 4 17 -4 32 -8 34 -10z m274 -71 c-13 -2 -33 -2 -45 0 -13 2 -3
4 22 4 25 0 35 -2 23 -4z m-7048 -473 c9 -8 14 -8 17 0 2 7 26 -17 53 -52 126
-160 371 -392 627 -591 588 -457 1006 -746 1228 -850 96 -46 146 -75 147 -85
7 -70 78 -433 107 -542 102 -398 303 -908 484 -1225 333 -584 711 -1041 1122
-1355 285 -217 561 -323 900 -346 74 -5 122 -2 216 15 315 54 462 129 675 341
126 124 215 242 269 354 99 207 163 592 143 860 -6 80 -5 125 2 140 6 13 31
28 65 39 30 9 88 31 127 47 126 52 170 35 192 -77 6 -34 20 -72 31 -85 34 -44
45 -175 45 -563 -1 -369 -13 -552 -51 -714 -8 -35 -23 -120 -34 -189 -38 -235
-152 -565 -297 -860 -182 -371 -384 -653 -673 -942 -248 -248 -447 -404 -675
-529 -281 -155 -372 -192 -795 -326 -100 -31 -193 -81 -234 -124 -17 -17 -35
-31 -41 -31 -6 0 -18 -15 -28 -33 -10 -18 -30 -41 -45 -49 -50 -30 -82 -66
-82 -93 0 -14 -11 -37 -25 -50 -13 -14 -21 -25 -17 -26 17 -1 -166 -61 -193
-63 -17 -1 -29 -7 -28 -14 4 -17 -54 -45 -60 -29 -4 7 -6 6 -6 -4 -1 -20 -81
-69 -341 -206 -395 -210 -563 -285 -864 -385 -139 -46 -218 -67 -234 -63 -15
4 -21 2 -17 -5 3 -5 2 -10 -4 -10 -5 0 -17 -3 -27 -7 -11 -4 -15 -3 -11 4 5 8
-4 10 -25 8 -58 -6 -93 -21 -90 -37 2 -11 -11 -19 -42 -27 -56 -14 -77 -14
-56 -1 18 12 13 12 -65 11 -55 -2 -177 -40 -169 -53 3 -4 -1 -8 -8 -9 -7 0 -4
-4 7 -8 36 -14 -80 -36 -124 -23 -103 30 -133 34 -226 32 -217 -4 -234 -6
-355 -52 -35 -13 -40 -18 -40 -37 0 -5 -12 -12 -27 -17 l-28 -7 30 -7 c118
-26 -660 -35 -947 -11 -93 8 -168 18 -168 23 0 4 8 8 18 8 9 0 23 4 31 9 11 7
5 15 -25 34 -51 32 -83 38 -204 40 -90 1 -102 -1 -120 -20 -13 -15 -16 -23 -7
-26 32 -13 -60 -5 -197 19 -136 23 -153 28 -172 51 -20 25 -23 26 -52 14 -32
-13 -72 -7 -72 11 0 5 -7 8 -15 5 -8 -4 -17 -2 -21 4 -3 6 -13 8 -21 5 -8 -3
-20 -3 -26 1 -6 4 -31 8 -56 9 -31 1 -49 8 -60 22 -12 15 -25 19 -50 16 -18
-2 -47 3 -64 11 -16 8 -38 15 -48 15 -29 0 -473 161 -581 210 -15 7 -25 16
-23 21 3 4 1 10 -5 14 -5 3 -10 1 -10 -5 0 -7 -6 -10 -12 -7 -7 2 -12 9 -11
15 2 6 -3 9 -11 6 -16 -6 -300 134 -436 216 -8 5 -73 43 -144 85 -221 131
-404 258 -636 444 -151 121 -284 232 -310 260 -9 9 -61 58 -118 110 -155 141
-432 451 -432 483 0 8 -12 23 -27 35 -24 17 -106 133 -189 263 -111 177 -210
388 -267 570 -25 80 -45 152 -45 160 0 8 -3 24 -7 35 -6 17 -5 18 5 5 10 -13
11 -12 6 3 -3 10 -6 28 -7 40 0 21 -1 21 -8 3 -6 -15 -10 -5 -19 39 -15 75
-15 98 0 89 8 -5 10 10 5 56 -4 45 -1 72 8 91 18 34 23 116 30 487 4 206 3
302 -5 302 -5 0 -10 -6 -10 -14 0 -9 -9 -14 -20 -13 -24 2 -24 15 -4 117 8 41
15 84 15 95 -1 20 54 246 66 275 3 8 5 21 4 29 -1 8 2 10 10 5 9 -5 10 -2 5
11 -10 28 52 237 77 257 18 14 20 20 10 36 -9 15 -5 35 18 103 16 46 33 93 38
104 5 11 13 31 16 45 19 69 201 526 296 740 52 118 240 491 322 640 119 216
308 510 426 663 147 190 211 269 211 259 0 -6 24 -9 58 -8 53 2 57 4 54 24 -2
12 2 22 7 22 6 0 20 9 31 20 l20 20 -22 0 c-35 1 -2 17 49 24 28 3 43 1 46 -7
3 -9 10 -9 30 2 14 8 24 17 22 21 -3 5 2 11 11 14 10 4 13 2 7 -6 -4 -7 6 -3
21 10 16 12 35 22 42 22 8 0 13 5 12 11 -3 12 18 20 80 32 23 5 31 3 26 -4 -4
-7 0 -9 12 -6 11 4 32 9 47 13 19 4 25 9 16 14 -18 12 176 72 206 64 18 -4 25
-2 25 9 0 8 16 19 38 25 44 12 275 92 348 121 29 11 54 17 58 14 3 -3 11 -1
18 5 17 13 165 71 358 139 85 29 164 58 175 63 22 10 115 46 218 84 37 14 67
21 67 16 0 -5 15 -4 32 2 18 6 27 13 20 16 -16 5 -5 22 14 22 8 0 12 -4 9 -10
-8 -13 -4 -13 39 5 41 17 47 25 14 19 -13 -3 -3 5 21 16 25 11 53 18 65 15 15
-5 17 -4 7 3 -10 7 0 15 40 30 30 11 63 24 73 28 13 5 17 4 12 -4 -5 -8 -2
-10 8 -6 9 3 14 10 11 14 -11 17 28 19 53 2 14 -9 23 -12 19 -5 -8 12 62 53
89 53 6 0 18 8 25 18 13 15 12 16 -3 4 -10 -8 -23 -12 -30 -9 -9 3 -6 7 7 12
11 4 77 30 147 57 70 27 133 46 139 42 7 -4 9 -3 6 3 -4 6 5 15 19 22 31 14
47 14 39 1 -4 -6 4 -5 19 1 14 7 23 16 20 21 -3 4 3 11 13 14 69 25 283 109
307 122 19 10 31 12 33 5 5 -14 48 -1 133 42 65 32 90 35 115 15z m-1050 -379
c-6 -5 -21 -12 -35 -15 l-25 -7 25 15 c28 17 50 21 35 7z m-2228 -797 c-3 -3
-12 -4 -19 -1 -8 3 -5 6 6 6 11 1 17 -2 13 -5z m-130 -40 c-3 -3 -12 -4 -19
-1 -8 3 -5 6 6 6 11 1 17 -2 13 -5z m-37 -8 c0 -2 -11 -6 -25 -8 -14 -3 -25
-1 -25 3 0 5 11 9 25 9 14 0 25 -2 25 -4z m8990 -332 c265 -311 429 -559 613
-928 98 -197 108 -221 93 -232 -22 -16 -266 -74 -311 -74 -33 0 -38 4 -56 45
-11 25 -36 106 -55 180 -21 80 -73 229 -128 367 -51 128 -99 251 -106 273 -7
22 -32 90 -55 151 -24 61 -47 128 -51 150 -3 21 -17 65 -30 96 -13 32 -24 68
-24 80 l0 23 18 -21 c9 -12 51 -62 92 -110z m7152 -14 c155 -9 192 -19 181
-48 -13 -35 -113 -189 -163 -250 -118 -146 -215 -304 -288 -467 -132 -298
-183 -439 -196 -547 l-7 -58 -57 0 c-89 1 -367 26 -380 34 -26 16 -8 85 67
259 22 51 56 135 76 187 89 230 177 440 210 495 103 177 252 366 310 391 36
16 56 16 247 4z m8345 -326 c-3 -3 -12 -4 -19 -1 -8 3 -5 6 6 6 11 1 17 -2 13
-5z m-2962 -554 c-3 -5 -12 -10 -18 -10 -7 0 -6 4 3 10 19 12 23 12 15 0z
m-11008 -1547 c-1 -54 -3 -10 -3 97 0 107 2 151 3 98 2 -54 2 -142 0 -195z
m-20 -420 c-3 -10 -5 -2 -5 17 0 19 2 27 5 18 2 -10 2 -26 0 -35z m-6040
-4469 c-3 -3 -12 -4 -19 -1 -8 3 -5 6 6 6 11 1 17 -2 13 -5z m-1814 -41 c-13
-2 -33 -2 -45 0 -13 2 -3 4 22 4 25 0 35 -2 23 -4z m1430 -20 c-7 -2 -21 -2
-30 0 -10 3 -4 5 12 5 17 0 24 -2 18 -5z m19324 -1759 c-3 -3 -12 -4 -19 -1
-8 3 -5 6 6 6 11 1 17 -2 13 -5z"/>
<path d="M13820 28561 c-72 -22 -130 -72 -132 -112 -2 -54 4 -70 51 -121 76
-83 126 -105 287 -129 77 -11 145 -26 153 -33 9 -8 43 -17 76 -19 173 -15 619
-123 1035 -251 295 -90 535 -179 895 -331 61 -26 151 -64 200 -85 104 -44 743
-332 1050 -475 116 -53 302 -139 415 -190 113 -51 304 -140 425 -198 548 -261
623 -283 713 -210 48 39 62 67 62 130 0 41 -5 58 -25 81 -39 47 -128 101 -270
165 -71 33 -272 126 -445 207 -173 81 -382 178 -465 215 -82 37 -233 106 -335
152 -102 47 -293 133 -425 193 -132 59 -339 152 -460 207 -441 201 -1126 455
-1434 533 -64 16 -136 36 -160 44 -24 9 -99 27 -167 41 -68 14 -176 44 -241
66 -150 52 -263 78 -383 89 -52 5 -140 16 -195 24 -107 17 -185 19 -225 7z"/>
<path d="M27620 28211 c-25 -4 -117 -43 -205 -87 -88 -43 -173 -84 -190 -91
-16 -6 -133 -61 -260 -123 -126 -62 -275 -132 -330 -157 -102 -46 -398 -180
-470 -214 -325 -149 -1064 -408 -1285 -450 -36 -6 -76 -18 -90 -24 -14 -7 -51
-19 -82 -26 -32 -7 -58 -16 -58 -21 0 -4 -16 -8 -35 -8 -19 0 -35 -4 -35 -10
0 -5 -7 -7 -15 -4 -8 3 -26 -3 -40 -14 -29 -23 -116 -47 -145 -39 -10 3 -21 0
-23 -6 -2 -6 -19 -10 -37 -10 -19 0 -40 -6 -47 -13 -14 -13 -127 -49 -188 -59
-22 -4 -99 -22 -171 -40 -72 -19 -162 -39 -200 -45 -38 -6 -142 -29 -231 -50
-150 -37 -446 -89 -538 -96 -22 -1 -40 -3 -40 -4 0 -4 -75 -9 -125 -9 -83 0
-243 -21 -259 -34 -20 -17 -501 -22 -611 -7 -47 6 -96 17 -110 23 -14 5 -72
13 -130 17 -93 5 -115 10 -190 44 -162 73 -192 82 -238 68 -61 -18 -86 -60
-90 -148 -8 -147 73 -229 279 -284 267 -71 410 -90 676 -90 222 1 535 17 653
35 58 9 115 13 127 10 12 -3 25 -1 28 5 3 6 17 7 31 4 27 -7 138 11 199 32 23
8 53 14 68 14 16 0 37 5 48 10 14 8 19 7 19 -2 0 -9 3 -10 8 -2 7 12 87 31
237 59 152 28 227 45 310 70 44 13 127 33 185 45 138 27 281 65 955 256 503
142 1058 347 1555 576 102 47 262 120 355 163 299 136 768 365 841 411 90 56
143 113 146 157 2 60 -3 79 -30 103 -62 54 -141 78 -222 65z"/>
<path d="M12788 26185 c-115 -29 -203 -96 -249 -191 -28 -58 -36 -164 -19
-245 12 -54 20 -68 74 -122 77 -78 143 -114 232 -127 38 -5 189 -10 336 -10
147 0 269 -4 272 -8 3 -5 -26 -40 -65 -78 -38 -38 -95 -103 -127 -144 -31 -41
-59 -77 -62 -80 -75 -73 -191 -376 -211 -556 -13 -116 2 -338 31 -484 16 -76
33 -123 91 -235 88 -174 121 -219 278 -376 230 -229 428 -347 730 -434 239
-68 452 -92 936 -105 463 -12 534 -15 940 -46 182 -13 434 -29 560 -34 127 -5
304 -14 395 -21 165 -11 353 -6 485 12 177 24 334 82 557 205 151 84 250 166
361 299 27 33 70 83 96 110 68 72 154 207 184 290 25 69 45 178 39 217 -6 40
-6 286 -1 453 4 111 2 126 -24 205 -16 47 -43 108 -60 135 -26 41 -32 61 -32
111 -1 56 -5 66 -38 105 -39 45 -41 46 -125 56 -37 4 -56 11 -63 25 -9 17 -5
18 73 13 188 -11 274 -17 298 -20 14 -2 32 -4 40 -5 10 -1 9 -4 -5 -9 -16 -7
-12 -10 21 -15 46 -8 114 1 114 15 0 5 7 9 15 9 28 0 116 50 162 93 49 45 89
115 109 190 11 41 10 57 -5 111 -44 159 -124 236 -272 261 -328 56 -613 83
-994 95 -283 9 -398 19 -427 36 -7 5 -8 2 -3 -5 8 -15 -35 -11 -235 19 -173
26 -335 38 -610 45 -214 6 -524 33 -625 55 -90 20 -258 31 -575 40 -357 10
-480 20 -655 51 -88 16 -187 22 -500 29 -534 13 -751 26 -855 52 -113 27 -502
36 -592 13z m3476 -1615 c134 -80 207 -186 210 -303 2 -125 -98 -269 -220
-318 -57 -23 -70 -24 -339 -27 -256 -2 -286 0 -347 18 -113 34 -204 123 -249
243 -22 58 -22 60 -4 111 60 169 159 273 292 305 21 5 164 9 318 8 l281 -2 58
-35z m2363 -322 c-2 -13 -4 -3 -4 22 0 25 2 35 4 23 2 -13 2 -33 0 -45z"/>
<path d="M18398 25103 c12 -2 30 -2 40 0 9 3 -1 5 -23 4 -22 0 -30 -2 -17 -4z"/>
<path d="M21180 23711 c0 -5 5 -13 10 -16 6 -3 10 -2 10 4 0 5 -4 13 -10 16
-5 3 -10 2 -10 -4z"/>
<path d="M9466 23143 c-6 -14 -5 -15 5 -6 7 7 10 15 7 18 -3 3 -9 -2 -12 -12z"/>
<path d="M9346 22631 c-3 -5 -3 -31 1 -57 5 -37 8 -43 14 -29 17 44 4 117 -15
86z"/>
<path d="M9238 21246 c-3 -39 0 -65 8 -71 20 -17 44 -84 37 -103 -6 -15 -5
-15 11 1 16 16 18 29 13 97 -6 69 -10 81 -36 107 l-29 30 -4 -61z"/>
<path d="M24934 16765 c-10 -11 -26 -24 -36 -27 -17 -7 -35 -64 -24 -76 4 -3
19 2 35 11 15 9 31 14 33 11 3 -3 23 6 43 21 21 14 44 25 51 25 8 0 11 6 8 15
-4 8 -1 15 5 15 6 0 11 -4 11 -10 0 -19 16 -10 17 10 2 21 -1 22 -78 25 -36 1
-50 -3 -65 -20z"/>
<path d="M26518 16573 c7 -3 16 -2 19 1 4 3 -2 6 -13 5 -11 0 -14 -3 -6 -6z"/>
<path d="M24777 16177 c-2 -7 -4 -23 -3 -36 1 -30 26 -41 26 -13 0 11 3 27 6
35 3 8 -1 17 -10 20 -8 3 -16 0 -19 -6z"/>
<path d="M8737 14505 c-10 -14 -14 -25 -9 -25 10 0 42 33 42 43 0 14 -16 5
-33 -18z"/>
<path d="M6985 13900 c-3 -5 -1 -10 4 -10 6 0 11 5 11 10 0 6 -2 10 -4 10 -3
0 -8 -4 -11 -10z"/>
<path d="M6580 13780 c-13 -8 -12 -10 3 -10 9 0 17 5 17 10 0 12 -1 12 -20 0z"/>
<path d="M6530 13719 c0 -5 5 -7 10 -4 6 3 10 8 10 11 0 2 -4 4 -10 4 -5 0
-10 -5 -10 -11z"/>
<path d="M4726 9173 c-4 -13 -3 -31 3 -40 9 -17 10 -17 17 0 3 10 2 28 -3 40
l-10 22 -7 -22z"/>
<path d="M7162 6534 c10 -10 20 -16 22 -13 3 3 -5 11 -17 18 -21 13 -21 12 -5
-5z"/>
<path d="M11238 6163 c6 -2 18 -2 25 0 6 3 1 5 -13 5 -14 0 -19 -2 -12 -5z"/>
<path d="M10868 6073 c7 -3 16 -2 19 1 4 3 -2 6 -13 5 -11 0 -14 -3 -6 -6z"/>
<path d="M1413 20309 c-169 -82 -200 -248 -75 -405 27 -34 94 -63 182 -79 19
-4 89 -24 155 -45 66 -21 152 -43 190 -49 39 -6 102 -20 140 -32 118 -35 168
-47 225 -54 30 -4 87 -18 125 -32 39 -13 108 -35 155 -48 47 -13 123 -35 169
-49 103 -32 115 -32 177 -1 63 32 128 109 151 182 14 45 15 61 5 99 -15 56
-54 116 -99 149 -42 33 -312 128 -408 144 -38 7 -115 25 -170 42 -55 16 -143
38 -195 49 -52 12 -138 34 -190 50 -52 16 -162 43 -245 60 -82 17 -154 35
-159 40 -18 18 -70 10 -133 -21z"/>
<path d="M1600 18200 c-140 -5 -172 -9 -211 -27 -78 -35 -128 -120 -128 -218
-1 -98 65 -181 178 -227 56 -23 59 -23 660 -26 667 -3 662 -3 757 60 26 18 56
47 66 63 25 43 33 130 18 199 -10 47 -20 67 -54 101 -76 76 -68 75 -626 77
-272 2 -569 1 -660 -2z"/>
<path d="M16576 9141 c-4 -7 -5 -15 -2 -18 9 -9 19 4 14 18 -4 11 -6 11 -12 0z"/>
<path d="M14030 6849 c0 -5 5 -7 10 -4 6 3 10 8 10 11 0 2 -4 4 -10 4 -5 0
-10 -5 -10 -11z"/>
<path d="M12640 5260 c0 -7 -8 -28 -17 -47 -13 -29 -14 -39 -4 -55 9 -15 10
-23 2 -31 -15 -15 -14 -27 4 -27 16 0 35 58 33 105 0 17 1 36 3 44 2 7 -2 16
-8 18 -7 3 -13 -1 -13 -7z"/>
<path d="M35946 5262 c-3 -5 1 -9 9 -9 8 0 12 4 9 9 -3 4 -7 8 -9 8 -2 0 -6
-4 -9 -8z"/>
<path d="M12570 5045 c0 -8 5 -15 10 -15 6 0 10 7 10 15 0 8 -4 15 -10 15 -5
0 -10 -7 -10 -15z"/>
<path d="M12560 4970 c0 -11 -6 -23 -14 -26 -19 -7 -9 -33 11 -30 21 3 36 32
28 56 -8 26 -25 26 -25 0z"/>
<path d="M12551 4891 c-8 -5 -10 -14 -6 -21 6 -9 10 -8 17 4 12 21 7 28 -11
17z"/>
<path d="M28670 4391 c0 -5 9 -7 20 -4 11 3 20 7 20 9 0 2 -9 4 -20 4 -11 0
-20 -4 -20 -9z"/>
<path d="M28740 4379 c0 -5 9 -9 20 -9 11 0 20 2 20 4 0 2 -9 6 -20 9 -11 3
-20 1 -20 -4z"/>
<path d="M32945 4370 c-19 -8 -19 -9 3 -9 12 -1 22 4 22 9 0 6 -1 10 -2 9 -2
0 -12 -4 -23 -9z"/>
<path d="M29070 4280 c0 -5 11 -10 24 -10 14 0 28 5 31 10 4 6 -7 10 -24 10
-17 0 -31 -4 -31 -10z"/>
<path d="M29538 4233 c7 -3 16 -2 19 1 4 3 -2 6 -13 5 -11 0 -14 -3 -6 -6z"/>
<path d="M11986 3433 c-4 -9 -2 -21 4 -27 7 -7 10 -2 10 17 0 31 -5 34 -14 10z"/>
</g>
</svg>
