<?xml version="1.0" encoding="utf-8"?>
<!-- Generator: Adobe Illustrator 24.0.0, SVG Export Plug-In . SVG Version: 6.00 Build 0)  -->
<svg version="1.1" id="图层_2" xmlns="http://www.w3.org/2000/svg" xmlns:xlink="http://www.w3.org/1999/xlink" x="0px" y="0px"
	 viewBox="0 0 12 12" style="enable-background:new 0 0 12 12;" xml:space="preserve">
<style type="text/css">
	.st0{fill-rule:evenodd;clip-rule:evenodd;fill:#EEF6FF;}
	.st1{fill:#136EC2;}
</style>
<g id="图标_x2F_引导图标">
	<path id="Rectangle" class="st0" d="M4,0h4c2.209,0,4,1.791,4,4v4c0,2.209-1.791,4-4,4H4c-2.209,0-4-1.791-4-4V4
		C0,1.791,1.791,0,4,0z"/>
	<path class="st1" d="M9.363,5.727L6.609,2.972c-0.319-0.317-0.838-0.318-1.157,0L2.697,5.727c-0.167,0.167-0.167,0.439,0,0.606
		c0.168,0.167,0.438,0.167,0.606,0l2.254-2.3V9c0,0.236,0.192,0.429,0.429,0.429S6.415,9.236,6.415,9V4
		c0-0.004-0.002-0.008-0.002-0.012l2.345,2.345c0.083,0.083,0.193,0.125,0.303,0.125s0.22-0.042,0.303-0.125
		C9.531,6.166,9.531,5.895,9.363,5.727z"/>
</g>
</svg>
