<?xml version="1.0" encoding="utf-8"?>
<!-- Generator: Adobe Illustrator 24.0.0, SVG Export Plug-In . SVG Version: 6.00 Build 0)  -->
<svg version="1.1" id="图层_2" xmlns="http://www.w3.org/2000/svg" xmlns:xlink="http://www.w3.org/1999/xlink" x="0px" y="0px"
	 viewBox="0 0 28 12" style="enable-background:new 0 0 28 12;" xml:space="preserve">
<style type="text/css">
	.st0{fill-rule:evenodd;clip-rule:evenodd;fill:#FFFFFF;}
	.st1{fill:#F99841;}
</style>
<g id="标签-已失效-轮廓">
	<rect class="st0" width="28" height="12"/>
	<path id="Rectangle-24备份" class="st1" d="M26.009,0C27.108,0,28,0.902,28,2.009v7.983C28,11.101,27.1,12,26.009,12H1.991
		C0.892,12,0,11.098,0,9.991V2.009C0,0.899,0.9,0,1.991,0H26.009z M26.009,0.8H1.991c-0.611,0-1.123,0.477-1.185,1.085L0.8,2.009
		v7.983c0,0.626,0.471,1.14,1.07,1.202L1.991,11.2h24.018c0.611,0,1.123-0.477,1.185-1.085L27.2,9.991V2.009
		c0-0.626-0.471-1.14-1.07-1.202L26.009,0.8z"/>
	<g id="已失效" transform="translate(2.672000, 2.384000)">
		<path id="路径" class="st1" d="M6.104,3.824V0.4H0v0.8h5.256v1.824H1.168V1.968H0.336v4.144c0,0.72,0.336,1.08,1.024,1.08h4.448
			c0.32-0.016,0.584-0.112,0.776-0.288c0.16-0.176,0.296-0.776,0.4-1.8L6.168,4.848c-0.048,0.816-0.12,1.288-0.232,1.4
			c-0.112,0.096-0.232,0.144-0.36,0.144H1.6c-0.288,0-0.432-0.144-0.432-0.432V3.824H6.104z"/>
		<path id="路径_1_" class="st1" d="M9.184,0.216C8.848,1.24,8.328,2.056,7.624,2.68l0.712,0.624C8.656,3,8.944,2.624,9.208,2.192
			h1.704V2.52c-0.016,0.344-0.056,0.672-0.112,0.984h-3v0.808h2.8c-0.112,0.304-0.248,0.592-0.408,0.848
			C9.76,5.792,8.92,6.32,7.672,6.736l0.456,0.712c1.248-0.4,2.144-0.968,2.696-1.72c0.224-0.32,0.416-0.696,0.568-1.112
			c0.456,1.176,1.496,2.12,3.112,2.84l0.464-0.744c-1.568-0.584-2.544-1.384-2.92-2.4h2.816V3.504h-3.2
			c0.048-0.312,0.08-0.64,0.096-0.984V2.192h2.584V1.376H11.76V0.048h-0.848v1.328h-1.28c0.112-0.264,0.224-0.544,0.336-0.848
			L9.184,0.216z"/>
		<path id="形状" class="st1" d="M16.688,1.8c-0.32,0.704-0.712,1.296-1.16,1.792l0.672,0.48c0.464-0.544,0.864-1.184,1.208-1.92
			L16.688,1.8z M18.8,3.4l0.552-0.544c-0.424-0.496-0.784-0.864-1.088-1.112L17.76,2.24C18.144,2.616,18.488,3,18.8,3.4z
			 M16.864,3.728l-0.52,0.592c0.304,0.248,0.6,0.52,0.904,0.816c-0.448,0.64-1.016,1.152-1.704,1.52l0.52,0.76
			c0.72-0.416,1.32-0.968,1.8-1.656c0.24,0.256,0.488,0.528,0.728,0.816l0.584-0.656C18.904,5.6,18.608,5.296,18.304,5
			c0.192-0.392,0.36-0.824,0.504-1.296l-0.728-0.32c-0.112,0.36-0.248,0.704-0.408,1.024C17.416,4.176,17.144,3.952,16.864,3.728z
			 M17.72,0l-0.864,0.144c0.128,0.208,0.24,0.424,0.352,0.656H15.72v0.808h3.776V0.8h-1.464C17.936,0.504,17.832,0.24,17.72,0z
			 M20.624,2.064h0.968c-0.048,0.848-0.216,1.6-0.512,2.264c-0.24-0.544-0.448-1.152-0.608-1.824
			C20.52,2.36,20.576,2.208,20.624,2.064z M20.632,5.128c-0.464,0.664-1.112,1.2-1.928,1.6l0.472,0.768
			c0.768-0.432,1.4-0.96,1.896-1.592C21.496,6.56,22,7.08,22.584,7.456l0.504-0.736c-0.6-0.36-1.112-0.872-1.544-1.536
			c0.48-0.88,0.752-1.92,0.816-3.12h0.592V1.248H20.84c0.08-0.344,0.144-0.704,0.208-1.088l-0.824-0.144
			c-0.192,1.456-0.568,2.608-1.112,3.464l0.52,0.648c0.128-0.184,0.256-0.384,0.376-0.592C20.184,4.112,20.392,4.64,20.632,5.128z"
			/>
	</g>
</g>
</svg>
