<?xml version="1.0" encoding="utf-8"?>
<!-- Generator: Adobe Illustrator 24.0.0, SVG Export Plug-In . SVG Version: 6.00 Build 0)  -->
<svg version="1.1" id="图层_3" xmlns="http://www.w3.org/2000/svg" xmlns:xlink="http://www.w3.org/1999/xlink" x="0px" y="0px"
	 viewBox="0 0 20 20" style="enable-background:new 0 0 20 20;" xml:space="preserve">
<style type="text/css">
	.st0{fill:#525666;}
</style>
<path class="st0" d="M17.7,9.8l-7-7c-0.2-0.2-0.4-0.3-0.7-0.3h0c-0.3,0-0.5,0.1-0.7,0.3l-7,7c-0.4,0.4-0.4,1,0,1.4
	c0.4,0.4,1,0.4,1.4,0L9,5.9V17c0,0.6,0.4,1,1,1s1-0.4,1-1V5.9l5.3,5.3c0.2,0.2,0.5,0.3,0.7,0.3s0.5-0.1,0.7-0.3
	C18.1,10.8,18.1,10.2,17.7,9.8z"/>
</svg>
