<?xml version="1.0" encoding="utf-8"?>
<!-- Generator: Adobe Illustrator 24.0.0, SVG Export Plug-In . SVG Version: 6.00 Build 0)  -->
<svg version="1.1" id="图层_2_1_" xmlns="http://www.w3.org/2000/svg" xmlns:xlink="http://www.w3.org/1999/xlink" x="0px"
	 y="0px" viewBox="0 0 158 57" style="enable-background:new 0 0 158 57;" xml:space="preserve">
<style type="text/css">
	.st0{fill-rule:evenodd;clip-rule:evenodd;fill:#333333;}
	.st1{fill-rule:evenodd;clip-rule:evenodd;fill:#FFD72E;}
	.st2{fill-rule:evenodd;clip-rule:evenodd;fill:#FFFFFF;}
	.st3{fill-rule:evenodd;clip-rule:evenodd;fill:#3B8CFB;}
</style>
<g id="秒懂-LOGO" transform="translate(1108.000000, 183.000000)">
	<g id="编组-21" transform="translate(4.000000, 38.000000)">
		<path d="M-1100.9-175.8L-1100.9-175.8h-0.2l-2.1,0.5c-0.1,0-0.2,0-0.3,0c-0.1,0-0.2,0.1-0.4,0.1l-1.5,0.2l-2.2,0.2l-0.9,0.1h-2.3
			l-0.1-0.1c-0.1-0.1-0.3-0.1-0.4-0.1s-0.4,0-0.4,0.7c0,0.5,0.8,0.5,1,0.5h0.1c0.2,0,0.3,0,0.3,0.1c0.1,0,0.1,0,0.2,0h0.5
			c0.3,0,0.6,0,0.9-0.1l3.8-0.4c1.2-0.1,2.1-0.2,3.1-0.5h0.9c0.3,0,0.4-0.2,0.5-0.5l0,0C-1100.2-175.6-1100.6-175.8-1100.9-175.8z"
			/>
		<path d="M-1086.6-166.6c-0.1-0.5-0.2-1.1-0.2-1.9v-0.1l-0.1-0.1c0-0.1,0-0.2,0.1-0.4v-0.7l-0.1-1c-0.1-0.3-0.1-0.9-0.1-1.8v-0.5
			c0-0.2,0-0.5,0.1-0.9v-0.8c0-0.4-0.2-0.5-0.5-0.6l0,0c-0.1,0-0.1,0-0.2-0.1l-0.3-0.2c-0.1-0.1-0.3-0.1-0.4-0.1h-0.1
			c-0.6,0-1.2,0.2-1.9,0.5l0,0c-0.3,0.3-0.5,0.7-0.6,1.2v0.5h0.1v0.1h0.1c0.2,0,0.3-0.2,0.5-0.5c0.5-0.6,1.1-0.9,1.7-0.8
			c0.3,0,0.4,0.1,0.6,0.2l0,0c0,0,0,0,0,0.1v1.6c0.1,0.6,0.1,0.8,0.1,0.9v0.5c0,0.2,0.1,0.4,0.1,0.5c0,0.2,0.1,0.4,0.1,0.6v2.1
			l-0.2-0.1h-0.1c-0.2,0-0.4,0-0.5,0l-0.1-0.3l-0.1-0.3h-0.3v0.7c-0.3,0.2-1.1,0.4-1.9,0.6l-0.3,0.1l0,0c0-0.9,0-1.8,0.1-1.9l0,0
			l0.1-0.1l0.3-0.1l0.3-0.3l0,0c0,0,0,0,0.1,0c0,0,0.1,0,0.2-0.1l0.2-0.1c0.2-0.1,0.3-0.1,0.3-0.1h0.1h0.2l0,0c0,0,0.1,0,0.1-0.1
			c0,0,0.1,0,0.1-0.1l0.1,0.1h0.2c0.4,0,0.6-0.2,0.6-0.7c0-0.4-0.3-0.7-0.6-0.7c-0.1,0-0.3,0-0.3,0.1c-0.3,0.1-0.4,0.2-0.5,0.3
			c-0.8,0.4-1.3,0.6-1.5,0.6l0,0v-1.3c1.4-0.1,2-0.2,2.1-0.6l0,0c0-0.5-0.6-0.6-1.1-0.6h-0.3h-0.1c-0.2,0.1-0.3,0.1-0.4,0.1
			s-0.1,0-0.2,0v-0.6c0-0.5-0.1-1.1-0.8-1.1c0.1-0.3,0.3-0.7,0.4-1l0,0c0,0,0,0,0.1,0h0.1l0,0v-0.1c0,0,0,0,0.1,0l2-0.5h0.2l1.2-0.5
			l0,0c0.1-0.1,0.1-0.2,0.1-0.3s0-0.2,0.1-0.2v-0.1c0-0.1,0-0.4-0.5-0.4h-0.2c-0.1,0-0.2,0-0.4,0.1l-0.7,0.3c-0.6,0.3-1.2,0.4-2,0.4
			c0-0.1,0-0.2,0-0.2c0.1-0.5,0.2-0.8,0.4-0.9c0.2-0.1,0.4-0.2,0.7-0.1l0,0l0,0c0.2-0.1,0.2-0.1,0.4-0.1l0,0l0,0v0.1
			c-0.1,0.1-0.1,0.1-0.1,0.3v0.3l0.2-0.1c0.9-0.3,1.4-0.8,1.4-1.3c0-0.1,0-0.2-0.1-0.3s-0.3-0.1-0.5,0h-0.3l0,0v0.1l0,0l0,0
			c-0.6,0.2-1.1,0.3-1.7,0.3l0,0c0.1,0,0.3,0,0.3-0.3c-0.1-0.4-0.3-0.6-0.6-0.8c-0.1-0.1-0.3-0.1-0.6-0.1h-0.1l-0.3,0.3v0.1
			c0.1,0.2,0.1,0.3,0,0.5v0.1c0,0.2-0.1,0.2-0.1,0.2h-0.1v0.1c-0.1,0-0.2,0-0.4,0h-0.5c-0.5,0-0.8-0.1-1-0.1c-0.1,0-0.1,0-0.1,0
			h-0.1c-0.1,0-0.2,0-0.4,0v-0.1l3.4-1.5c0.2-0.1,0.3-0.1,0.4-0.1h0.2l0.5,0.1c0.2,0.1,0.3,0.1,0.4,0.1h0.2l0.2-0.2v-0.8h-0.1
			c-0.1,0-0.3-0.1-0.4-0.1c-0.2-0.1-0.3-0.1-0.5-0.1h-0.3c-0.4,0.1-0.6,0.1-0.7,0.1s-0.3,0-0.7,0.3l-0.5,0.2
			c-0.2,0.1-0.4,0.1-0.6,0.2c-0.2,0.1-0.4,0.2-0.6,0.3l-0.5,0.3c-0.3,0.1-0.5,0.2-0.6,0.3c-0.2,0.1-0.3,0.2-0.5,0.2h-0.1
			c-0.2,0.2-0.3,0.5-0.3,0.8v0.2v0.1c0.1,0.2,0.2,0.4,0.5,0.5h0.1c0.1,0,0.2,0,0.3,0.1c0.1,0.1,0.3,0.1,0.4,0.1h2.2
			c-0.1,0.5-0.2,1-0.3,1.4c-0.1,0.1-0.2,0.1-0.4,0.1h-0.1l0,0v0.1l0,0h-0.1c-0.8,0.4-1.6,0.6-2.2,0.8h-0.3l0,0v0.1l0,0h-0.3h-0.1
			c-0.2,0.1-0.4,0.4-0.4,0.6c0,0.2,0.1,0.5,0.6,0.5c0.2,0,0.5,0,1-0.2l0,0c0,0,0.1-0.1,0.2-0.1h0.1l0,0c0,0,0.1-0.1,0.3-0.2l1.2-0.5
			h0.1l0,0l0,0v0.1c0,0.1-0.1,0.2-0.1,0.3l-0.5,1.5c-0.4,1.3-1,2.5-1.6,3.6l0,0v0.1c-0.2,0.3-0.3,0.6-0.4,0.9c0,0-0.1,0.1-0.2,0.3
			l-0.1,0.2c-0.1,0.1-0.2,0.2-0.2,0.3c0,0,0,0.1-0.1,0.1l-0.1,0.1l0,0l0,0l0,0h-0.3v0.1c0,0.1,0.1,0.4,0.2,0.7l-0.2,0.2v0.8
			c0,0.2,0.3,0.3,0.5,0.2c0.4-0.1,0.9-0.7,2.3-3.4l0.3-0.5c0.2-0.3,0.3-0.5,0.4-0.8c0.3-0.8,0.7-1.9,0.9-2.2l0.1-0.1v-0.1l0,0v2.2
			c0.1,0.5,0.1,0.8,0.1,1.1c0,0.1,0,0.3,0,0.4c0,0.2-0.1,0.5-0.1,0.8l-0.1,1c0,0.3-0.1,0.6-0.1,0.8c-0.1,0.6-0.1,1-0.1,1.4
			c0,0.3,0.2,0.4,0.4,0.5h0.1h0.1c0.2-0.1,0.3-0.4,0.5-0.8v-0.1l2.6-0.8h0.1c0,0,0,0.1,0.1,0.2c0,0.1,0,0.1,0.1,0.2
			c0,0.1,0.1,0.2,0.1,0.3s0,0.2,0.1,0.4l0.2,0.3l0.2,0.1l0,0c0,0,0,0,0.1,0.1l0,0c0.2,0.2,0.3,0.3,0.5,0.3c0.1,0,0.2-0.1,0.2-0.2
			c0,0,0-0.1,0.1-0.1l0,0v-0.1c0,0,0.1-0.1,0.2-0.2l0,0L-1086.6-166.6z"/>
		<g>
			<path d="M-1076.2-170.9l-0.2,0.1c-0.1,0-0.2-0.2-0.4-0.4c-0.4-0.6-0.9-1-1.2-1c-0.1,0-0.2,0-0.4,0.1h-0.1l0,0
				c-0.1,0.1-0.2,0.2-0.2,0.4v0.2h0.1c0,0,0.1,0,0.1,0.1c0.1,0,0.1,0.1,0.2,0.1h0.1c0.1,0,0.2,0,0.2,0c0,0.2,0.1,0.3,0.3,0.5
				c0.5,0.6,0.9,0.9,1.3,0.9s0.6-0.3,0.6-0.7v-0.2h-0.3C-1076-170.9-1076.1-170.9-1076.2-170.9z"/>
			<path d="M-1081.2-178.3h5.3c0.2,0,0.3-0.1,0.4-0.2c0.1-0.1,0.1-0.2,0-0.4c0-0.3-0.2-0.4-0.4-0.5h-0.1c-0.2,0-0.4,0-0.7,0.1
				c-0.1,0-0.2,0.1-0.2,0.1c-0.2,0.1-0.3,0.1-0.4,0.1h-1.2c-0.5-0.1-0.9-0.1-1.2-0.1h-0.4c-0.3,0-0.6,0-0.9-0.1c-0.2,0-0.4,0-0.6,0
				h-0.1c0,0-0.1,0-0.2-0.1c-0.1,0-0.2-0.1-0.3-0.1l-0.2-0.1c-0.2-0.1-0.4-0.2-0.7-0.2c-0.2,0-0.4,0.3-0.4,0.4v0.1
				c0,0,0,0.2,0.1,0.3h0.1c0.6,0.2,1.1,0.4,1.5,0.5C-1081.6-178.4-1081.4-178.3-1081.2-178.3z"/>
			<path d="M-1019.3-179.3h0.8l-0.1-0.2c0-0.1,0-0.1-0.1-0.1c0-0.1-0.1-0.2-0.2-0.2l-2.2-0.5c-0.1,0-0.3,0-0.5-0.2l0,0
				c-0.1,0-0.2-0.1-0.3-0.1c-0.2-0.1-0.3-0.1-0.4-0.1c-0.6,0-0.7,0.3-0.7,0.6l0,0C-1022.8-179.7-1021.6-179.3-1019.3-179.3z"/>
			<path d="M-1079.3-172.3L-1079.3-172.3c-0.1-0.1-0.1-0.1-0.1-0.2v-0.1c0-0.3,0.3-0.5,1.1-0.7c0.1,0,0.2-0.1,0.3-0.1
				c0.1,0,0.2-0.1,0.2-0.1h0.1l0.1-0.1c0.1,0,0.1-0.1,0.2-0.2c0,0,0-0.1,0.1-0.1l0,0v-0.1c0-0.1,0.1-0.2,0.2-0.3l0.1-0.1l-0.1-0.1
				c-0.1-0.1-0.2-0.1-0.3-0.2c0,0-0.1,0-0.2-0.1l0,0c0-0.1,0.1-0.2,0.3-0.4c0.1-0.1,0.1-0.1,0.2-0.2c0.5-0.5,0.7-0.9,0.7-1.3
				c0-0.5-0.5-0.6-1.1-0.7c-1,0-2,0.2-3.1,0.6h-0.1c-0.1,0.1-0.1,0.4-0.1,0.5c0,0.2,0.3,0.3,0.6,0.3c0.1,0,0.2,0,0.3-0.1
				c0.1-0.1,0.1-0.1,0.1-0.1l0,0l0,0c0.6-0.3,1.2-0.4,1.8-0.4c0.2,0,0.3,0.1,0.4,0l0,0l-0.3,0.4h-0.1v0.1c-0.2,0.3-0.6,0.9-1.3,1.5
				c-0.7,0.3-1.2,0.5-1.5,0.6h-0.1c0-0.5-0.1-1-0.2-1.6c0-0.2-0.1-0.4-0.1-0.5c-0.1-0.4-0.1-0.8-0.1-1.1c0,0,0.1-0.1,0.2-0.2
				c0,0,0.1,0,0.1-0.1c0.1,0,0.2-0.1,0.2-0.2c0-0.2-0.2-0.3-0.6-0.4l0,0c-0.3,0-0.4,0.1-0.5,0.2l0,0v0.4c-0.1,0.2-0.1,0.3-0.1,0.4
				c0,0.4,0,0.9,0.2,1.7l0.1,0.2c0.1,0.5,0.2,1,0.2,1.3v0.5c0,0.1-0.1,0.1-0.1,0.1c-0.1,0.1-0.1,0.2-0.1,0.3c0,0.2,0.1,0.3,0.2,0.4
				c0,0,0,0.1,0.1,0.1c0,0.1,0.1,0.1,0.2,0.2c0,0,0,0,0,0.1c0,0,0,0.1,0.1,0.2c0.3,0.4,0.5,0.6,0.7,0.6c0.1,0,0.2,0,0.4-0.1v0.5
				c0,0.1,0,0.2,0.1,0.3v0.9l0,0l-0.2-0.3c-0.4-0.5-0.8-1.1-1.1-1.8v-0.1l0,0v-0.1c-0.1-0.1-0.3-0.1-0.4-0.1h-0.1
				c-0.2,0-0.2,0.1-0.3,0.2c0,0,0,0.1-0.1,0.1v2.1c-0.1,0.3-0.2,0.6-0.2,1v0.6c0,0.3,0,0.6,0.4,0.6l0,0c0.7-0.1,0.9-0.6,1-1
				c0-0.1,0-0.3-0.1-0.4l-0.1-0.1h-0.1l-0.1-0.1l0.1-0.1v-0.1c0-0.5,0.1-0.9,0.1-1.3c0.1,0.2,0.3,0.7,0.6,1.6l0.2,0.7
				c0.5,1.1,0.6,1.2,0.7,1.2c0.6,0,0.6-0.3,0.6-0.6v-4.3v-0.3L-1079.3-172.3z M-1080.2-172.3
				C-1080.2-172.3-1080.3-172.2-1080.2-172.3c-0.1,0-0.1,0-0.1-0.1l0,0c0,0,0,0,0.1,0l0,0C-1080.2-172.4-1080.2-172.4-1080.2-172.3
				L-1080.2-172.3z"/>
			<path d="M-1067.8-177.5h0.3c0.3,0,0.4-0.2,0.4-0.5v-0.1c-0.1-0.1-0.1-0.3-0.3-0.3c-0.1,0-0.1,0-0.2,0s-0.1-0.1-0.3-0.2l-0.2-0.1
				c-0.1-0.1-0.2-0.1-0.2-0.1c-0.1-0.1-0.2-0.2-0.3-0.2l-0.1-0.1c-0.4-0.3-0.7-0.4-0.9-0.4h-0.3v0.1c-0.1,0.1-0.1,0.2-0.1,0.3
				s0,0.1-0.1,0.2v0.1c0,0.2,0.1,0.3,0.2,0.4L-1067.8-177.5z"/>
			<path d="M-1001.2-181.1c0.1,0.1,0.2,0.2,0.3,0.3c0.6,0.5,0.8,0.9,0.8,1.2c0,0,0,0-0.1,0.1l0,0v0.4c0,0.1,0,0.3,0.3,0.4l0.1,0.1
				l0,0v0.1c0.2,0.4,0.3,0.8,0.3,1.2v0.2v0.2c0.5,0,0.5-0.5,0.5-0.7c0-0.1,0-0.3-0.1-0.5v-0.4c0.1-0.3,0.7-0.5,1.6-0.8l0,0
				c0,0,0,0,0.1,0.1l0,0h0.2c0.1,0,0.2-0.1,0.3-0.1c0,0,0.1-0.1,0.2-0.1l0,0v-0.1l0,0h0.2v-0.4l0,0c-0.1-0.2-0.2-0.6-0.6-0.6
				l-1.7,0.5c0,0,0,0-0.1,0s-0.2,0-0.3,0.1l0,0c-0.1-0.1-0.1-0.2-0.2-0.4l-0.1-0.2c-0.4-0.8-0.9-1.3-1.2-1.3h-0.1
				c-0.4,0-0.5,0.2-0.5,0.5C-1001.5-181.3-1001.4-181.2-1001.2-181.1z"/>
			<path d="M-1080.6-180.8L-1080.6-180.8c0.1,0,0.3,0.2,0.6,0.1l0.2,0.1c0,0,0.1,0.1,0.3,0.2l0.6,0.4c0.5,0.4,0.7,0.4,0.8,0.4
				c0.1,0,0.4,0,0.4-0.4v-0.1l0,0c-0.9-0.9-1.7-1.5-2.6-1.7l-0.2-0.1v0.4l0,0c0,0,0,0-0.1,0.1l-0.1,0.1l0.1,0.3L-1080.6-180.8
				L-1080.6-180.8z"/>
			<path d="M-1067-171.9v-0.1l0,0l-0.1-0.1v-0.1l-0.1-0.2c0-0.3,0-0.5-0.2-0.8l0,0h-0.1c-0.3,0-0.4,0.8-0.4,0.9v2.5
				c-0.1,0.2-0.6,0.4-1.6,0.5c-1-0.1-1.6-0.4-1.7-1v-1.6v-0.4c-0.1-0.7-0.1-1.2-0.1-1.5c0.1-0.5,0.2-0.7,0.2-0.7l1.2-0.5l0,0
				c0.1-0.1,0.2-0.2,0.3-0.6l0,0c0-0.2-0.2-0.4-0.4-0.4h-0.3h-0.1c-0.2,0.1-0.2,0.1-0.3,0.1c-0.1,0-0.2,0-0.4-0.2l0,0l-0.1-0.1
				c-0.1-0.1-0.2-0.1-0.4-0.1c-0.4,0-0.6,0.4-0.6,0.9c0,0.2-0.1,0.3-0.1,0.4c-0.6,0.3-1.4,0.6-2.4,0.7h-0.3c-0.1,0-0.3,0-0.4,0.1
				l0,0c0,0.1-0.1,0.1-0.1,0.2c-0.1,0.1-0.1,0.2-0.1,0.3s0,0.3,0.3,0.4h0.1c0.8,0,1.9-0.2,2.8-0.6l0,0l0,0c0,0.1-0.1,0.3-0.2,0.4
				c-0.1,0.1-0.1,0.3-0.1,0.4c-0.4,0.9-0.7,1.5-0.9,1.8l-0.1,0.2c-0.1,0.2-0.2,0.4-0.5,0.7l0,0v-0.2l-0.3,0.3
				c-0.4,0.2-0.5,0.6-0.5,1c0,0.3,0,0.5,0.4,0.5h0.3l0,0c0.4-0.4,1-1.1,1.7-2.4l0.1-0.1l0,0c0.1-0.2,0.2-0.3,0.2-0.4
				c0.1,0,0.1-0.1,0.1-0.1l0,0v1.7v0.1c0.1,0.2,0.1,0.2,0.1,0.4l0,0h0.1l0,0v0.1c0,0.1,0.1,0.2,0.2,0.2s0.1,0,0.2,0
				c0.4,0.9,1.4,1.1,2.3,1.1h0.2l0.2-0.1h0.4l1.6-0.5c0.4-0.1,0.6-0.4,0.5-0.8C-1066.7-170.6-1066.8-171.2-1067-171.9z
				 M-1074.4-170.7L-1074.4-170.7L-1074.4-170.7L-1074.4-170.7L-1074.4-170.7z"/>
			<path d="M-1047.4-168h-0.9c-0.5,0-1.3,0-2.2,0.2c-0.2,0-0.3,0.1-0.4,0.1c-0.2,0-0.3,0.1-0.5,0.1l0,0c0.8-0.7,1.3-1.1,1.4-1.3
				c0.1-0.1,0.1-0.1,0.1-0.2l0,0c0.1,0,0.2-0.1,0.2-0.2c0-0.1,0-0.5-0.6-0.5c-0.2,0-0.4,0-0.7,0.1c-0.4,0.1-0.6,0.1-0.8,0.1l0,0
				c0-0.2,0-0.4,0.1-0.5l0,0l0.1,0.1l0.8-0.2l0,0c0.2-0.2,0.5-0.4,0.7-0.5l1.5-1.4c0.6-0.6,0.9-1.3,0.9-1.9c0-0.2,0-0.4-0.3-0.6
				c-0.3-0.2-0.5-0.3-0.7-0.4h-0.2l-0.2-0.1h-0.5c-0.8,0-1.6,0.1-2.3,0.3l0,0c0.1-0.1,0.5-0.4,1.8-0.6c1.4-0.2,2.1-0.4,2.1-0.9
				c0-0.3-0.2-0.4-0.4-0.5h-0.1l-0.1,0.1l-0.1,0.1l-0.3,0.1h-0.1c0,0-0.1,0.1-0.2,0.2c-0.2,0-0.5,0.1-0.8,0.2l-0.4,0.1
				c-0.2,0.1-0.4,0.2-0.6,0.2c-0.1,0-0.2,0-0.3,0.1h-0.2c-0.1,0-0.1,0-0.1,0s0,0,0-0.2l0,0v-0.4l0,0c0,0,0.1,0,0.1-0.1
				c0.2-0.1,0.4-0.3,0.5-0.6v-0.1c0-0.2-0.1-0.3-0.2-0.3s-0.2-0.1-0.3,0h-0.3l-0.4,0.1c-0.2,0.1-0.4,0.2-0.5,0.2c-0.2,0-0.4,0-0.5,0
				c0.4-0.2,0.8-0.5,1.1-0.9c0.2-0.3,0.5-0.5,0.8-0.6c0.1,0,0.1-0.1,0.2-0.1s0.3-0.1,0.4-0.1c0.2,0,0.3-0.1,0.4-0.1h0.3l0.5-0.5
				v-0.1c-0.1-0.3-0.3-0.4-0.6-0.5l0,0c-0.1,0-0.2,0.1-0.3,0.1c0,0,0,0-0.1,0v-1.5c0-0.3-0.2-0.5-0.6-0.5c-0.2,0-0.5,0.1-0.5,0.7
				c0,0.1,0,0.2,0.1,0.3v0.3c0,0.6-0.1,0.9-0.2,1c-0.2,0.1-0.5,0.1-0.8,0.1c-0.2,0-0.4-0.1-0.7-0.1h-0.2c0,0,0-0.1,0-0.2v-0.2
				c-0.2-1.1-0.6-1.7-1.1-1.7h-0.1l0,0c-0.1,0.1-0.2,0.2-0.3,0.4l-0.1,0.2h0.2l0,0l0.1,0.1c0,0,0.1,0.1,0.2,0.3
				c0.2,0.4,0.3,0.7,0.3,1h-0.1c-1.2,0-1.9,0.3-1.9,0.9c0,0.3,0.2,0.5,0.4,0.5h0.1l0,0l0.1-0.1l0.3-0.1l0.3-0.2
				c0.3-0.1,0.7-0.1,0.9-0.1h0.2c0.4,0.3,0.6,0.7,0.7,1.1c0,0,0,0.1-0.3,0.2l-0.2,0.2c-0.6-0.1-1.1-0.1-1.7,0.2l0,0l0,0
				c0,0.1-0.1,0.1-0.1,0.2c-0.1,0.1-0.1,0.2-0.1,0.3v0.1l0,0h0.1l0,0v0.1l0.5,0.5v-0.3h0.1c0.1,0,0.2,0,0.3-0.1
				c0.2-0.1,0.3-0.1,0.3-0.1h0.1h0.8c0.1,0,0.2,0,0.2,0c0.1,0,0.3,0.1,0.4,0.1l0,0l0.6,0.1l0.1,0.1l-0.1,0.6l0,0l0,0l-0.7,0.2
				c-0.9,0.2-1.7,0.3-2.4,0.3c-0.5,0-0.8-0.1-1.1-0.2c0-0.1-0.1-0.1-0.2-0.1c-0.1-0.1-0.2-0.1-0.3-0.1c-0.6,0-0.6,0.3-0.6,0.6
				c0,0.2,0.2,0.3,0.3,0.3l0,0c0.6,0.1,1.2,0.2,1.9,0.3l0,0c0,0,0,0.1,0.1,0.1v0.1c0,0.1,0,0.2,0.1,0.3c0,0.1,0,0.1,0,0.2l0.1,0.3
				c0.2,1,0.3,1.5,0.3,2l0,0l-0.1,0.1v0.1c0,0.2,0,0.5,0.1,0.9l0.1,0.5l0,0c0.1,0.2,0.1,0.2,0.1,0.2c0,0.2,0.1,0.3,0.2,0.4l0,0
				c-0.8,0-1,0.4-1,0.6c0,0.2,0.3,0.4,0.4,0.4h0.1c0.3,0,0.7,0,1.4-0.2l0.2-0.1c0.1,0,0.3-0.1,0.4-0.1c0.2,0,0.4-0.1,0.5-0.1v0.1
				c0,0.1,0,0.2-0.1,0.4c-0.5,0.4-1.5,0.7-3.3,0.9h-0.2c-0.1,0-0.4,0-0.4,0.4c0,0.1,0,0.3,0,0.4c0,0.2,0.1,0.3,0.1,0.6v0.4l0.3-0.3
				c0.1-0.1,0.3-0.1,0.6-0.1h0.1c0.2-0.1,0.2-0.1,0.3-0.1h0.1c0.1,0,0.3,0,0.6-0.1l0.5-0.2c0.5-0.1,0.9-0.2,1.2-0.3
				c0.6,0,1.1-0.1,1.6-0.2l0,0l0,0v-0.1l0,0h0.4l0.5-0.1l0,0c0.2-0.1,0.2-0.1,0.3-0.1h0.2l0,0c0.3-0.1,0.5-0.1,0.7-0.1h0.3l0.3,0.1
				l0,0c0.1,0,0.2,0,0.3,0.1c0,0,0.1,0.1,0.2,0.1h0.3l0.3-0.2v-0.2l0.4-0.4c0.1-0.1,0.1-0.2,0.1-0.2
				C-1046.9-167.9-1047.1-168-1047.4-168z M-1048.9-173.8c-0.2,0.2-0.3,0.4-0.4,0.6c-0.1,0-0.2,0.2-0.4,0.4l0,0
				c0-0.1,0.1-0.3,0.1-0.4c0-0.2-0.1-0.5-0.4-1l-0.4-0.4l-0.3,0.3v0.1c0.1,0.2,0.1,0.2,0.1,0.3v0.2h0.1v0.2c-0.1,0.4-0.3,0.8-0.8,1
				l0.1-0.1c0.2-0.1,0.4-0.4,0.4-0.5s0-0.4-0.5-0.4c-0.2,0-0.2,0-0.2,0v-0.3c0-0.2,0.1-0.3,0.1-0.4c0-0.1,0-0.2,0.1-0.3
				c0.4-0.2,1-0.3,1.5-0.3h0.6c0.3,0.1,0.5,0.1,0.6,0.1c0.1,0.1,0.2,0.1,0.2,0.4C-1048.6-174.2-1048.7-174-1048.9-173.8z
				 M-1051.9-168.9L-1051.9-168.9c0-0.1,0-0.1,0.2-0.2L-1051.9-168.9z M-1054.2-173.4L-1054.2-173.4l0.4-0.2
				c0.2-0.1,0.4-0.2,0.5-0.2s0.2,0,0.3-0.1l0.2-0.1h0.1v0.5h-0.9l-0.2,0.1C-1054-173.3-1054.2-173.3-1054.2-173.4L-1054.2-173.4z
				 M-1053.7-174.7L-1053.7-174.7c-0.2,0-0.2,0-0.3,0.1h-0.1l-0.5,0.2c-0.1,0-0.1,0.1-0.2,0.1v-0.1c0-0.1,0-0.1-0.1-0.2
				c0-0.1,0-0.2,0-0.3c0.5-0.1,1-0.2,1.6-0.3l0.4-0.1C-1053-174.9-1053.2-174.8-1053.7-174.7z M-1053.8-172.2l0.2-0.1
				c0.1,0,0.2-0.1,0.3-0.1c0.2-0.1,0.4-0.1,0.6-0.1c0.1,0,0.1,0,0.2,0.1c0,0.1-0.2,0.2-0.6,0.3l-0.2,0.1c-0.1,0-0.3,0.1-0.4,0.2
				c-0.2,0.2-0.3,0.3-0.4,0.3s-0.2,0-0.3-0.1c-0.1-0.1-0.1-0.3-0.1-0.5C-1054.3-172.1-1054-172.1-1053.8-172.2z M-1054.2-169.6
				c0.1-0.1,0.1-0.2,0.1-0.3c0-0.2,0.1-0.3,0.1-0.4c0.2-0.1,0.8-0.3,1-0.3c0,0.1,0,0.3,0,0.4c0,0.2,0,0.4-0.1,0.5l-1.3,0.3
				C-1054.3-169.5-1054.3-169.5-1054.2-169.6z M-1052.2-179.5l-0.4,0.4l-0.2,0.2l0,0h-0.1c0,0-0.1-0.2-0.1-0.7h0.4
				C-1052.4-179.5-1052.3-179.5-1052.2-179.5z"/>
			<path d="M-1017-175.8h-0.2c-0.1,0-0.2,0-0.3,0.1l-0.2,0.1c-0.1,0-0.1,0.1-0.2,0.1c-0.1,0-0.2,0.1-0.3,0.2l-0.1,0.1l-0.2,0.3
				l-1.4,1.3l-0.3,0.2c0-0.3,0.2-0.7,0.6-1.3c0.3-0.5,0.5-1,0.5-1.3c0.1-0.2,0-0.3,0-0.4c0,0-0.1-0.1-0.4,0c-0.1,0-0.2,0-0.3,0
				c0-0.2,0-0.3,0.2-0.5l0,0l0,0c0-0.2-0.1-0.2-0.2-0.2c-0.1-0.1-0.2-0.2-0.4-0.2c-0.1,0-0.2,0-0.4,0.1c-0.1,0-0.2,0.1-0.3,0.1
				c-0.1,0.1-0.4,0.2-0.4,0.2c-0.1,0-0.2,0-0.2,0.1h-0.1c-1.7,0.3-2.3,0.7-2.3,1.1v0.1c0.1,0.3,0.3,0.4,0.6,0.5l0,0
				c0.3,0,0.5-0.1,0.8-0.4c0.1,0,0.2-0.1,0.2-0.1c0.1,0,0.1-0.1,0.2-0.1c0.5-0.2,0.9-0.3,1.1-0.3l0,0c-0.1,1-0.2,1.7-0.3,2.3
				c-0.1,0.2-0.2,0.4-0.4,0.7c0,0.1-0.1,0.1-0.1,0.2c0,0.1,0,0.1-0.1,0.2l-0.1,0.1l-1.4,2c-0.4,0.4-0.6,0.8-0.6,1.2
				c0,0.2,0.3,0.4,0.5,0.4l0,0c0.4,0,0.8-0.5,1.5-1.5l0.1-0.2c0.1-0.2,0.3-0.4,0.5-0.6v0.8c-0.1,0.4-0.1,0.7-0.1,1v0.4
				c0,0.5,0.1,0.9,0.2,1.3l0,0l0.4,0.4h0.1c0.1,0,0.2-0.1,0.2-0.2c0,0,0-0.1,0.1-0.1l0,0v-0.1h0.1v-0.1l0,0h0.1l0.1-0.6
				c0.1-0.5,0.1-1,0.1-1.4v-0.1c0-0.2-0.1-0.3-0.1-0.4v-0.2c-0.1-0.4-0.1-0.7-0.1-0.9v-0.3v-0.2h-0.1l0,0c0,0,0.1-0.1,0.2-0.2
				l1.6-1.8l0.6-0.6c0.2-0.2,0.5-0.6,0.5-0.9v-0.4H-1017z"/>
			<path d="M-1007.8-171.2h-0.2v0.2c0,0.1,0,0.2,0.1,0.4v0.4l0,0c0,0,0,0-0.1,0.1v0.1c-0.6,1.5-1.4,2.1-2.8,2.1
				c-0.9,0-1.8-0.6-2.6-1.6v-0.1l0,0c0-0.1,0-0.2-0.1-0.2l-0.1-0.3c0-0.1,0-0.2-0.1-0.2c0-0.1-0.1-0.2-0.1-0.3s0-0.2-0.1-0.4
				c0-0.1,0-0.2-0.1-0.3c0-0.1,0-0.1-0.1-0.2c0-0.1-0.1-0.1-0.1-0.2l-0.1-0.1c0.1,0,0.1-0.1,0.1-0.2c0,0,0,0,0-0.1
				c0.1,0,0.2-0.2,0.4-0.3l0.3-0.3l0,0l0,0c0,0,0,0,0.1,0.1l0.1,0.1h0.1c0.5,0,1.1-0.4,1.6-1.4l1.4-3.2c0.1-0.5,0.2-1,0.2-1.4
				c0-0.8-0.8-1-1.7-1c-2.1,0.1-3,0.5-3.1,1.1c0,0.1,0,0.3,0.3,0.4h0.1c0.1,0,0.2,0,0.2-0.1c0.1,0,0.1,0,0.2-0.1l0.5-0.2
				c0.7-0.3,1.3-0.4,1.8-0.4h0.1c0.4,0,0.5,0,0.5,0.1v0.1c-0.7,2.5-1.4,4.1-2.2,4.9c0,0-0.1,0-0.1-0.1c0-0.3,0-0.4,0.2-0.7l0.2-0.5
				c0.2-0.7,0.3-1.2,0.3-1.7v-0.2c0-0.4-0.1-0.9-0.7-0.9c-0.1,0-0.3,0-0.4,0.3v0.1c-0.1,1.5-0.4,2.7-0.8,3.6v-0.3
				c0-0.2-0.1-0.2-0.2-0.2l-0.1-0.1c0-0.1-0.1-0.2-0.1-0.3s-0.1-0.2-0.1-0.4v-0.3l-0.1-0.4c-0.2-3.2-0.6-4.4-1.2-4.4
				c-0.1,0-0.3,0-0.4,0.3v0.2l0.1,0.3l0,0c0,0,0,0,0.1,0l0,0c0,0.1,0,0.2,0.1,0.2v0.1l0.2,0.6c0.1,0.6,0.2,1.1,0.3,1.5
				c0,0.2,0.1,0.4,0.1,0.6v0.8c0,1.6,0.1,2.4,0.4,2.7l0,0c0,0,0.1,0,0.1,0.1c-0.1,0-0.1,0.1-0.1,0.2l-0.2,0.4
				c-0.3,0.6-0.5,1.1-0.8,1.4v-0.1h-0.2c-0.5,0.1-0.8,0.6-1,1.3l0,0c0,0.6,0.3,0.7,0.5,0.7c0.4,0,0.7-0.3,1.2-0.9l0.9-0.9
				c0.1,0.2,0.3,0.5,0.4,0.9l0,0c0.1,0.2,0.1,0.2,0.1,0.3v0.1c0.7,1.4,2,2.2,4,2.4l0,0l0,0c2-0.3,3.2-1.5,3.5-3.4
				C-1006.8-170.7-1006.8-171.2-1007.8-171.2z"/>
			<path d="M-1062.2-173.6L-1062.2-173.6v-0.1c-0.1-0.1-0.1-0.1-0.1-0.2l0,0c-0.2-0.8-0.7-1.6-1.4-2.5l-0.3-0.3
				c-0.1-0.1-0.3-0.1-0.4-0.1h-0.1l0,0c0,0-0.1,0.1-0.2,0.4l-0.1,0.3l0.1,0.1c0,0,0.1,0.1,0.4,0.3c0.9,0.8,1.4,1.9,1.5,3.5
				c0,0.2,0,0.5-0.1,0.8v0.2c-0.1,0.2-0.1,0.4-0.1,0.5l0,0c0.1,0.4,0.2,0.6,0.4,0.6c0.1,0,0.3,0,0.4-0.3l0.1-0.1l0,0h0.1v-2.5
				c0,0,0-0.2-0.1-0.3C-1062.2-173.3-1062.2-173.4-1062.2-173.6z"/>
			<path d="M-986.9-166.7c0,0-0.1-0.2-0.6-0.7c-0.3-0.2-0.5-0.4-0.6-0.5c-1.3-1.4-2.4-2.2-3.4-2.5l0,0c0.1-0.1,0.1-0.1,0.1-0.2
				c0,0,0-0.1,0.1-0.2l0.1-0.2c0-0.1,0.1-0.2,0.1-0.3c0.1-0.2,0.1-0.3,0.1-0.4v-0.2c0.1-0.4,0.2-0.6,0.2-0.7l0.1,0.1
				c0.1,0.3,0.4,0.6,0.6,0.6l0,0c1-0.1,1.5-1.7,1.7-5v-0.1c0-0.6-0.3-0.9-0.8-0.9s-1.1,0.2-2,0.5c-0.1,0-0.1,0-0.2,0.1
				c-0.1,0-0.2,0.1-0.3,0.1c-0.9,0.5-1.4,0.8-1.6,1c0-0.1,0-0.2,0-0.3s0-0.2,0.4-0.4l2-2.2c0.5-0.6,0.7-1,0.7-1.4v-0.1
				c-0.1-0.2-0.2-0.4-0.5-0.6h-1.2c-0.1-0.1-0.1-0.1-0.3-0.1h-0.1c0,0-0.1,0-0.2,0c-0.1,0-0.3,0.1-0.6,0.1h-0.5l-0.2,0.1
				c-0.6,0.1-1,0.2-1,0.5c0,0.5,0.5,0.6,1,0.7h0.2c0,0,0,0,0.1,0.1s0.2,0.1,0.3,0.1h0.2v-0.2c0-0.1,0-0.2-0.1-0.3
				c0.3-0.1,1-0.2,1.6-0.3c0.2,0,0.3,0.1,0.3,0c0,0-0.1,0.2-0.4,0.5l-0.2,0.2l-0.1,0.2c-0.1,0.1-0.2,0.2-0.2,0.3h-0.1l0,0
				c-0.4,0.4-0.7,0.7-0.9,1c-0.1,0.1-0.2,0.3-0.3,0.3l-0.1,0.1c-0.1,0-0.1,0.1-0.2,0.1c0,0,0,0-0.1-0.1c-0.2-0.3-0.3-0.5-0.6-0.5
				h-0.1c-0.2,0.1-0.4,0.2-0.5,0.5v1.2c0,0.2,0.1,0.2,0.2,0.3c0,0,0.1,0,0.1,0.1c0.2,0.2,0.2,0.5,0.2,1c0,0.2,0,0.4,0,0.6
				c0,0.4,0.1,0.8,0.1,1.4v0.9c0,0.4,0.1,0.7,0.1,1c0,0.4,0.1,0.7,0.1,1l0.1,0.4l0.5,0.5h0.1c0.5-0.2,0.7-0.7,0.6-1.3v-1v-0.1
				c-0.1-0.4-0.2-0.7-0.1-1v-0.1l-0.1-0.1c-0.2-0.1-0.3-0.2-0.2-0.3v-0.2l-0.1-0.3v-0.2c0.1-0.2,0.1-0.3,0.1-0.5c0,0,0-0.1,0-0.2
				c0.1,0,0.2-0.1,0.2-0.2v-0.1c0.3-0.4,0.7-0.7,1.2-0.9v1.1c0,1.8-0.1,2.8-0.5,3.5c-0.2,0.5-0.4,1-0.6,1.4
				c-0.1,0.3-0.2,0.5-0.3,0.8h-0.2v0.1l0,0v0.1c-0.3,0.6-0.6,1.1-1,1.6c-0.2,0.2-0.3,0.2-0.5,0.2v-0.9l-0.2,0.1
				c-0.3,0.2-0.5,0.5-0.4,0.9c0,0.3,0.3,0.5,1,0.7h0.2l0,0c0.1,0,0.1-0.1,0.2-0.1c0.3-0.2,0.6-0.4,0.9-0.7l0,0l0,0
				c0-0.1,0-0.1,0.2-0.3c0.1-0.1,0.1-0.2,0.1-0.2c0.1-0.1,0.2-0.2,0.2-0.3c0.1-0.1,0.2-0.3,0.4-0.7l0.2-0.3l0.1-0.2l0,0l0,0h0.1
				l0.6,0.6l0.3,0.2c0.2,0.2,0.4,0.3,0.5,0.4c0.1,0,0.1,0.1,0.1,0.1l0,0h0.1l0.1,0.1c0.1,0.1,0.3,0.2,0.4,0.2l0.6,0.6l0,0h0.1l0,0
				l0.1,0.1l0.2,0.2l0.2,0.1l0.1,0.2l0.1,0.1c0.2,0.3,0.3,0.5,0.5,0.5s0.3-0.2,0.4-0.6L-986.9-166.7L-986.9-166.7z M-990.7-176.4
				c0.6-0.4,1-0.5,1.4-0.5h0.3l0,0l0,0c0,1.8-0.3,3.1-0.9,4l0,0l0,0l0,0h-0.1l0,0c0,0-0.1-0.1-0.2-0.2c0-0.1,0-0.1-0.1-0.1
				c0-0.1-0.1-0.2-0.1-0.2c-0.1-0.8-0.1-1.6,0-2.7C-990.3-176.2-990.6-176.4-990.7-176.4z"/>
			<path d="M-996.1-177.2h-0.2l-0.1,0.1c0,0-0.1,0.1-0.2,0h-0.1l-3.3,1h-0.1c-0.1,0.1-0.1,0.1-0.2,0.1l0,0l-0.2,0.1c0,0,0-0.1,0-0.2
				c0-0.1,0-0.2-0.1-0.3c0-0.5-0.1-0.8-0.2-1.1c0-0.1-0.1-0.2-0.1-0.3c0,0-0.1-0.1-0.1-0.2l-0.3-0.6c-0.3-0.6-0.7-1.2-0.8-1.7l0,0
				c0.1,0,0.2-0.1,0.2-0.2c0,0,0-0.1,0.1-0.1l0.1-0.1l-0.1-0.1c-0.1-0.1-0.2-0.2-0.6-0.3l-0.3-0.1l0,0c-0.3,0-0.6,0-0.6,0.4
				c0,0.8,0.3,1.6,0.9,2.4l0,0c0.2,0.3,0.4,0.6,0.5,0.7v0.1h0.1c0,0,0,0,0,0.1c0,0,0,0.1,0.1,0.2c0.1,0.2,0.2,0.3,0.3,0.4
				c0,0.1,0,0.2,0,0.3s0.1,0.3,0.1,0.5v0.4c0,0.2-0.5,0.5-1.6,0.8h-0.1l0,0c-0.1,0.1-0.1,0.1-0.1,0.1l-1.9,0.8l-0.3,0.1v0.3
				c0,0.2,0.3,0.4,0.4,0.4h0.3c0.1,0,0.3,0,0.7-0.3l1.6-0.8l4.2-1.5l-1.3,1.3l-2.8,2.9v0.1l0,0c0,0,0,0-0.1,0.1c0,0-0.1,0-0.1,0.1
				c-0.1,0-0.2,0.1-0.2,0.2v0.1c-0.1,0.1-0.1,0.3-0.1,0.4v0.2h0.2c0.6,0,0.9-0.2,1.1-0.8l1.7-1.7c0.2,0.2,0.4,0.6,0.5,1.3
				c0.2,1,0.5,1.3,0.8,1.4c0,0.6-0.3,1.3-0.7,2l-0.1,0.2v0.1l0,0l0,0c-0.1,0-0.2,0.1-0.2,0.2l-0.3,0.6l-0.2,0.3c0,0-0.1,0.1-0.1,0.2
				c-0.1,0.1-0.1,0.2-0.3,0.3l-0.1,0.1c-0.3,0.2-0.5,0.6-0.5,0.8c0,0.3,0.2,0.5,0.6,0.5h0.2c0.3,0,0.5-0.2,0.7-0.7
				c0.1-0.3,0.2-0.4,0.3-0.5l0,0l0,0c0.9-1.4,1.5-2.9,1.9-4.5v-0.2c0.1-0.8,0.2-1.5,0.3-1.7l0,0v-0.1c0.1-0.3,0.1-0.7,0.1-1.1v-0.2
				c0-0.6-0.2-0.8-0.5-0.8c-0.6,0-0.7,0.3-0.7,0.5v1.1c0,0.1-0.1,0.1-0.1,0.1c-0.1,0.1-0.1,0.2-0.1,0.3s0,0.3,0.2,0.3v0.1
				c-0.1,0.1-0.1,0.3-0.1,0.4l-0.1,0.1c-0.1,0.1-0.1,0.2-0.1,0.3l-0.3,0.3l-0.2-0.8l-0.1-0.1c-0.1-0.5-0.2-0.9-0.5-1.4l0,0l0.3-0.3
				l0.2-0.3l0.1-0.1c1-0.7,2.6-1.9,2.6-2.4C-995.8-176.9-995.8-177.2-996.1-177.2z"/>
			<path d="M-1059.5-175l-0.2-1.2l0,0l0,0l0,0v-0.1c-0.2-1-0.5-1.8-1-2.5c0-0.2-0.3-0.2-0.3-0.2c-0.1,0-0.3,0-0.4,0.1l0,0
				c-0.1,0.2-0.2,0.6-0.3,1.2v0.2h0.1l-0.2,0.2c-0.1,0.1-0.1,0.1-0.1,0.2v0.1c0,0,0,0,0.1,0v0.3h0.1c0.2,0,0.2-0.2,0.2-0.5v-0.3h0.4
				v-0.2c0-0.2,0-0.3,0-0.3c0.1,0.1,0.2,0.3,0.3,0.6v0.1c0,0.3,0.1,0.5,0.2,0.6c0,0.5,0.1,0.9,0.2,1.2l0,0h-0.2
				c-0.3,0-0.7,0.1-0.7,0.7c0,0.3,0.2,0.5,0.3,0.5c0,0,0.1,0,0.3-0.1h0.4c0.1,0.1,0.1,0.2,0.1,0.3v3v0.1c0,0.1-0.1,0.3-0.1,0.6v0.4
				c0,0.4,0,0.7-0.1,0.9c0,0,0-0.1-0.1-0.1v-0.1h-0.1c-0.2,0-0.2,0.2-0.2,0.3l-0.2,0.2v0.5l0,0c0.1,0.9,0.2,1.3,0.5,1.3
				c0.2,0,0.4,0,0.6-0.2l0,0v-0.1c0-0.2,0-0.5,0.1-0.9l0.1-0.5c0.2-2.1,0.3-3.8,0.3-5h0.1c0.1,0,0.1,0,0.1,0.1c0.1,0,0.1,0,0.2,0.1
				l0,0h0.4c0.4,0,0.8-0.1,0.8-0.7v-0.1h-0.1C-1058.9-174.4-1059.4-174.7-1059.5-175z"/>
			<path d="M-1029-177l-0.1,0.1c0,0-0.1,0-0.2,0c-0.1-0.1-0.3-0.1-0.4-0.1c-0.2,0-0.6,0.1-1.3,0.3c-0.1,0-0.1,0.1-0.2,0.1l-0.1,0.1
				l-0.2,0.1c-0.5,0.2-1.1,0.3-1.6,0.3c0.8-0.8,1.3-1.6,1.4-2.4c0.1-0.2,0.1-0.3,0-0.4c-0.1-0.1-0.2-0.1-0.3-0.1
				c-0.3,0-0.6,0.1-0.8,0.5l0,0l0,0c0,0,0,0.2-0.2,0.4l-0.5,1c-0.1,0.2-0.6,1-0.6,1.2c0,0.5,0.5,0.6,1,0.7c0.1,0,0.2,0,0.4-0.1
				c0.1,0,0.2-0.1,0.3-0.1c0.1,0,0.2-0.1,0.3-0.1c0.3-0.1,0.4-0.1,0.5,0h0.1l1.2-0.4c0.1,0,0.3,0,0.5-0.1s0.2-0.1,0.3-0.1
				c0.3,0,0.5,0.1,0.5,1.1c0,0.4-0.1,1-0.3,1.7l-0.2,0.9v0.1l-0.7,2.1v0.1l-0.1,0.2l0,0c-0.1,0.5-0.3,0.6-0.5,0.6
				c-0.3,0-0.6-0.5-0.7-1.3v-0.1l-0.5-0.7h-0.4v1.3c0.3,1.5,0.7,2.3,1.3,2.4c0.4,0,0.6-0.3,0.8-0.5c0.1-0.1,0.3-0.4,0.5-0.9l0.1-0.2
				v-0.1c0,0,0,0,0.1-0.1l0.4-0.8v-0.1c0-0.1,0-0.1,0.1-0.2c0-0.1,0-0.1,0-0.2v-0.1c0.2-0.3,0.3-0.7,0.5-1.5l0.3-1.1l-0.1-0.1
				c0,0-0.1-0.2,0-0.4s0.1-0.4,0.1-0.5c0.1-1-0.1-1.7-0.5-2.3L-1029-177z"/>
			<path d="M-1034.9-176.2c-0.3,0-0.6,0.2-1.1,0.7l-0.3,0.2l-0.2,0.2c0-1.1-0.1-1.8-0.5-2.1c-0.3-0.3-0.7-0.4-1.1-0.3h-0.1
				c-0.1,0-0.3,0-0.6,0.1l-0.5,0.2c-0.1,0-0.1,0.1-0.2,0.1l-0.1,0.1l-0.3,0.1c-0.5,0.4-0.9,0.6-1.3,0.8l-0.1,0.1
				c-0.1-0.2-0.1-0.3-0.1-0.5v-0.1l0.9-0.9v-0.1l0,0l0,0l0,0c0.1,0,0.1-0.1,0.1-0.1c0.2,0,0.2-0.1,0.3-0.2c0,0,0-0.1,0.1-0.1
				c0.7-1.1,0.9-1.8,0.9-2.4v-0.3c0-0.3-0.2-0.3-0.4-0.3c-0.1,0-0.3,0-0.5,0.2l-0.1,0.1v0.1c0.1,0.4,0.1,0.8-0.2,1.1
				c-0.1,0.1-0.1,0.2-0.1,0.3s0,0.1-0.1,0.2l-1.6,1.9c0,0-0.1,0.1-0.2,0.1s-0.1,0-0.2,0.1c-0.7,0.1-1.1,0.5-1.1,1.1s0.3,0.7,0.4,0.7
				c0.2,0,0.4,0,0.6-0.2c0.1,0,0.1-0.1,0.2-0.1l0.1-0.1c0.1,0,0.2,0.3,0.2,0.5c0,0,0,0.1-0.1,0.1c0,0.1-0.1,0.1-0.1,0.2
				c-0.1,0.3-0.2,0.4-0.2,0.6c0,0.2,0.1,0.6,0.3,0.9c0,0.1,0.1,0.1,0.1,0.2l0.1,0.1l0.1,0.2c0.3,0.9,0.5,2.1,0.4,3.4
				c0,0,0,0.1,0.1,0.3c0,0.5,0.3,0.6,0.4,0.6c0.4,0,0.7-0.4,1-1.4c0-0.1,0.1-0.2,0.1-0.2c0-0.1,0.1-0.2,0.1-0.2l0.2-0.2l0.3-0.4
				l0.7-0.7l0,0l0.5,1.7c-0.1,1.1,0,2.3,0.9,2.4h0.1l0.1-0.3v-0.1c0-0.1,0-0.1,0-0.1h0.1v-0.1c0.1-0.5,0.1-1,0.1-1.8v-0.6
				c0.1-0.8,0.1-1.5,0.1-2v-0.6v-0.1c-0.1-0.2-0.1-0.3,0-0.5v-0.1c0,0,0-0.1,0.2-0.2l0,0l0,0c0-0.1,0.1-0.1,0.1-0.2
				c0-0.1,0-0.1,0.1-0.2l1.4-1.4v-0.1C-1034.7-176.1-1034.7-176.2-1034.9-176.2z M-1037.7-174.9v0.9l-0.1,0.1
				c-0.5-0.4-1.4-0.6-2.7-0.7c-0.3,0-0.5,0.1-0.6,0.2l0,0v-0.3c0.7-0.9,1.7-1.4,2.6-1.4h0.1c0.2,0,0.3,0,0.4,0.1
				C-1037.7-175.9-1037.7-175.5-1037.7-174.9z M-1040.9-173.8L-1040.9-173.8L-1040.9-173.8c0.1,0,0.1,0,0.2,0s0.2,0.1,0.4,0.1h0.5
				l0.2,0.1h0.1c0.7,0.1,1.1,0.2,1.2,0.2l-0.2,0.2c-0.8,0.7-1.2,1.1-1.3,1.3c-0.1,0.1-0.2,0.2-0.4,0.5l-0.3,0.4l-0.1,0.1
				c-0.1-0.2-0.2-0.7-0.2-1.4v-0.7c-0.1-0.3-0.1-0.6-0.2-1C-1041-173.9-1040.9-173.8-1040.9-173.8z M-1037.7-172.7
				c0,0.2,0,0.4-0.1,0.7c-0.1,0.4-0.1,0.7-0.1,1c-0.2-0.2-0.3-0.6-0.3-1C-1038.1-172.4-1037.9-172.6-1037.7-172.7z"/>
			<path d="M-1030.4-172.5L-1030.4-172.5c0.1,0,0.4,0,0.4-0.4c-0.1-0.4-0.5-0.8-1.3-1.1l-1.2-0.8h-0.6l-0.2,0.2v0.1c0,0,0,0-0.1,0.1
				l-0.1,0.1l0.6,0.6h0.1l1.1,0.5C-1031.2-172.8-1030.8-172.6-1030.4-172.5z"/>
		</g>
		<path d="M-979.6-169 M-978.3-169.6c0.1,0,0.2-0.1,0.3-0.1c0.2-0.1,0.4-0.1,0.6-0.1c0.1,0,0.2,0.2,0.3,1.1v0.2
			c0.1,0.5,0.3,1.1,0.5,1.1s0.3-0.1,0.4-0.2l0.1-0.1l0,0h0.1v-2v-0.1l0.1-0.6c0-1.1,0.1-2.1,0.3-3.1v-0.1c0-0.1,0-0.1,0-0.1h0.1
			v-0.1c0.1-0.4,0.2-0.8,0.2-1.3c-0.1-1-0.6-1.4-1.7-1.5c-0.7,0-1.5,0.2-2.5,0.7l0,0c-0.1,0.1-0.2,0.1-0.3,0.2c-0.1,0-0.1,0-0.2,0.1
			l0.1-0.1c0.1-0.1,0.1-0.2,0.1-0.3c0.2-0.6,0.4-1.3,0.6-1.9l0.1-0.1l0.2-0.9l0,0h0.1c0.1,0,0.2,0,0.3-0.1h0.5l2.9-0.5
			c0.5-0.1,0.8-0.3,0.9-0.7l0,0c0.1-0.4-0.1-0.6-0.4-0.6c-0.2,0-0.4,0-0.6,0c-0.2,0-0.4,0.1-0.7,0.1l-0.1,0l0,0c0,0-0.1,0-0.1,0.1
			l0,0l-0.1,0c-0.1,0.1-0.3,0.1-0.6,0.1c-0.2,0-0.3,0.1-0.6,0.1c-0.4,0-0.7,0-1,0.1l-0.5,0.2h-0.1l-0.2-0.1h-0.1
			c-0.2,0-0.5,0-0.9,0.2c-0.1,0-0.2,0.1-0.2,0.1c-0.1,0-0.3,0.1-0.4,0.1c-0.1,0-0.3,0-0.5,0s-0.5,0.1-0.7,0.1h-0.6
			c-0.4,0.1-0.7,0.1-0.9,0.1h-0.1c-0.6,0-0.7,0.3-0.7,0.5c0,0.6,0.3,0.7,0.6,0.7c0.1,0,0.2,0,0.3,0s0.2-0.1,0.4-0.1l0.7-0.1
			c0.5,0,0.9,0,1.2-0.1c0.1,0,0.2,0,0.4-0.1h0.1l0,0c0.3-0.1,0.5-0.1,0.6-0.1h0.1l0,0v0.1v0.1l-0.1,0.1l-0.4,1.5l0,0l0,0h-0.1v0.3
			l-0.1,0.4c-0.1-0.1-0.2-0.2-0.4-0.2c-0.4,0-0.6,0.2-0.6,0.5c0,0.2,0.1,0.4,0.1,0.6c0,0.1,0,0.2,0.1,0.3c0,0.1,0.1,0.2,0.1,0.3
			c0.1,0.2,0.1,0.4,0.1,0.6l0.1,0.1l0.2,0l0.1,0.1c0,0,0,0.1,0,0.3v0.2c0,0,0,0.1,0,0.2c0,0.2,0,0.4,0,0.7l0.1,2
			c0,0.6,0,1.1-0.2,1.3l0,0l0,0c0,0,0,0-0.1,0c0,0-0.1,0-0.2,0.1c-0.1,0-0.4,0.2-0.4,0.4c0,0.1,0,0.3,0.1,0.4c0.1,0.1,0.4,0.1,0.5,0
			l0,0l0,0c-0.1,0.3,0,0.4,0,0.5c0.1,0.1,0.2,0.2,0.4,0.2c0.3,0,0.4-0.4,0.5-0.9 M-978.9-169.3 M-979-169.2 M-979.4-169.1
			L-979.4-169.1 M-976.5-170.4c-0.1-0.3-0.2-0.5-0.6-0.5l-0.2-0.1v0.4l-0.2,0.1h-0.3c-0.6,0.1-1.1,0.2-1.7,0.4c-0.1,0-0.2,0-0.3,0.1
			c0,0-0.1,0.1-0.2,0.1h-0.1v-2.3v-0.1c0.4,0.1,1.1-0.1,1.7-0.3l0.9-0.2c0.2-0.1,0.3-0.1,0.3-0.3v-0.1c-0.1-0.2-0.3-0.4-0.6-0.4
			h-0.2c-0.1,0-0.2,0-0.3,0s-0.3,0.1-0.5,0.1h-0.1c-0.4,0.1-0.8,0.2-0.9,0.2h-0.4h-0.1l0.1-0.7c0.1-0.1,0.2-0.2,0.2-0.4
			c0,0,0-0.1,0.1-0.1l0,0l0,0l0,0c0.8-0.7,1.8-1.1,2.8-1.1h0.2l0.2,0c0.1,0,0.2,0.1,0.3,0.1l0.1,0.1v0.3c0,0.2,0,0.6-0.1,1v0.2
			c-0.1,0.2-0.1,0.4-0.1,0.6c-0.1,0.3-0.1,0.7-0.1,1.3"/>
		<g>
			<path d="M-962.4-178c0.1,0,0.2-0.1,0.3-0.1c0,0,0.1-0.1,0.2-0.1c0.1,0,0.1,0,0.2-0.1c0.2-0.1,0.4-0.1,0.6-0.1
				c0.4,0,0.6,0.1,0.7,0.2l0.2,0.2c0,0.2,0.3,0.2,0.3,0.2c0.2,0,0.3-0.1,0.3-0.2c0-0.1,0.1-0.2,0-0.3v-0.1c0-0.5-0.7-0.8-1.9-1
				c0,0-0.1,0-0.2,0.1l-0.1-0.1h-0.1c-0.6,0.1-1,0.3-1.1,0.7l0,0C-963-178.1-962.6-178-962.4-178z"/>
			<path d="M-956.3-175.5c-0.2-0.4-0.6-0.5-1.1-0.6h-0.2v0.6c-0.2,0.1-0.5,0.2-0.9,0.2l0,0c0,0,0,0,0-0.1v-0.7l-0.1-1.9v-0.2
				c-0.3-2.5-0.8-3.5-1.5-3.5c-0.1,0-0.3,0-0.4,0.3v0.1c0,0.2,0.1,0.5,0.3,1c0.2,0.4,0.3,0.7,0.4,1v0.4l0,0l0.2,0.2
				c0.1,0.4,0.2,0.9,0.2,1.5c-0.1-0.1-0.2-0.1-0.4,0c-0.1,0-0.4,0-0.8,0.1l-0.4,0.1c-0.6,0.2-1,0.3-1.3,0.2h-0.2
				c-0.2,0-0.4,0.2-0.4,0.5c0,0.5,0.6,0.5,0.9,0.5h0.2c0.1,0,0.2,0,0.5-0.1l0.8-0.2c0.2-0.1,0.3-0.1,0.4-0.1h0.1c0,0,0,0,0.1,0.1
				l0,0h0.2c0.1,0,0.1,0,0.2,0c0.1,0.3,0.1,0.6,0.1,1v0.3l0,0l-2.5,0.8l0,0c0-0.1,0-0.3-0.2-0.3h-0.2l0,0c-0.1,0.1-0.3,0.2-0.5,0.3
				l0,0l-0.2-0.2v-0.3l-0.7,0.3c-0.5,0.2-0.7,0.3-1,0.5l-0.2,0.2c-0.5,0.4-1,0.6-1.6,0.7v-0.4l0.1-0.7v-0.4c0-0.1,0-0.3,0.1-0.4
				c0.1-0.2,0.1-0.5,0.1-0.6s0-0.3-0.1-0.4c-0.1-0.1-0.1-0.1-0.1-0.1l0,0l0,0l0,0c0.3-0.2,0.8-0.4,1.7-0.6l1.3-0.5v-0.1
				c0.1-0.1,0.1-0.2,0.1-0.3s0-0.1,0.1-0.2v-0.1l-0.1-0.1c0,0,0-0.1-0.1-0.1c0-0.1-0.1-0.2-0.2-0.2h-0.5c-0.3,0-0.8,0.2-1.4,0.5
				l-0.2,0.1c-0.1,0.1-0.4,0.2-0.4,0.2l-0.3,0.1c-0.1,0.1-0.3,0.2-0.4,0.2c0,0,0-0.1,0-0.2v-0.2v-0.2c-0.1-1-0.5-1.5-0.9-1.5
				s-0.6,0.2-0.6,0.5c0,0.1,0,0.3,0.2,0.5c0.2,0.5,0.3,0.9,0.3,1.4v0.1c-0.5,0.2-1.1,0.3-1.8,0.4c-0.3,0-0.6-0.1-0.8-0.2
				c-0.2-0.1-0.4-0.2-0.7-0.2s-0.5,0.2-0.5,0.5c0,0.2,0.1,0.3,0.2,0.4c0.2,0.2,0.6,0.3,1.3,0.2h0.2c0.3,0,0.6-0.1,0.9-0.1l0.3-0.1
				c0.4-0.1,0.7-0.1,0.9-0.1l0,0v1.3c0,0.1,0,0.3-0.1,0.6l-0.1,0.3l-0.2,0.3c-0.1,0.1-0.3,0.3-0.5,0.6l-0.2,0.3
				c-0.6,0.8-0.9,1.5-0.9,2.1c0,0.4,0.2,0.6,0.5,0.6c0.2,0,0.6-0.5,0.8-0.8l0.2-0.3c0.2-0.4,0.3-0.6,0.4-0.7h0.2v1.7
				c0,0.6,0.3,0.7,0.5,0.7h0.1v-0.1c0.4-0.5,0.4-0.7,0.4-0.8c0-0.5,0-1.1,0.2-1.7l0,0l0,0l1.7-0.6h0.1v-0.1c0,0,0.1-0.1,0.3-0.2
				c0.1,0,0.1-0.1,0.2-0.1l0.3-0.2c0,0,0.1,0,0.1-0.1c0,0.1,0.1,0.2,0.3,0.2c0.3,0,1-0.1,1.7-0.3c0.1,0,0.2-0.1,0.3-0.1
				c0.2,0,0.3-0.1,0.4-0.2l0.1-0.1l0.3-0.1c0.7-0.1,1-0.2,1.1-0.3l0.1-0.1h0.1c0,0,0,0,0,0.1v0.1c-0.1,2-0.3,3.9-0.6,5.7
				c-0.2,0.3-0.4,0.9-0.5,1.7v0.2c0,0.4,0,0.8,0.4,0.8c0.3,0,0.4-0.3,0.6-0.8l0.1-0.1c0-0.1,0.1-0.2,0.1-0.3v-0.1h0.1v-0.1
				c0.1-0.6,0.2-1,0.3-1.4v-0.1c0-0.1,0-0.2,0.1-0.5c0.1-1,0.2-1.8,0.3-2.4c0.1-0.7,0.1-1.2,0.1-1.5v-0.4c0-0.4,0.1-0.7,0.3-1.2
				c0,0,0.1,0,0.2-0.1c0.1,0,0.1,0,0.2-0.1c0.2-0.1,0.3-0.1,0.3-0.1h0.1h0.1l0.2-0.2h0.1c0,0,0.1,0,0.3-0.1c0.2,0,0.2-0.2,0.2-0.3
				c0.1,0,0.1-0.1,0.2-0.2L-956.3-175.5L-956.3-175.5z"/>
			<path d="M-969-179.3L-969-179.3c0.9,0,1.2,0.1,1.2,0.2v0.1h2.1c0.4,0,0.5-0.2,0.5-0.5c0-0.1,0-0.4-0.2-0.4c-0.6,0-1.3,0-1.9-0.1
				l-0.5-0.2c-0.3-0.1-0.4-0.1-0.5-0.1h-0.2c-0.4,0-0.7,0.3-0.7,0.7C-969.2-179.6-969.1-179.5-969-179.3L-969-179.3z"/>
		</g>
	</g>
	<g id="秒懂LOGO" transform="translate(42.000000, 0.000000)">
		<path class="st0" d="M-994.8-169.7l2.2-9.3c0.2-0.8,0.1-1.7-0.4-2.5c-0.5-0.7-1.2-1.3-2-1.5c-0.2-0.1-0.5-0.1-0.8-0.1
			c-1.2,0-2.3,0.6-2.9,1.7c0,0-0.7-1.7-2.8-1.7c-0.6,0-2.7,0-3.3,0h-6.6c-1.1,0-1.9,0.4-2.5,1.1c0,0-0.8-1.1-2.2-1.1h-14.9
			c-1.8,0-3.3,1.5-3.3,3.3c0,1.2,0.7,2.3,1.6,2.8c-1.2,0.3-2.1,1.2-2.4,2.4l-0.5,2.2c-0.1-0.1-0.1-0.3-0.2-0.4
			c-1-1.9-2.7-3.2-4.7-3.7c-0.6-0.2-1.3-0.2-1.9-0.2c-2.4,0-4.6,1.1-6.2,2.8c-0.1-0.2-0.2-0.3-0.3-0.5c-1.2-1.5-3-2.4-5.1-2.4
			c-2.5,0-4.6,1.2-5.9,3.2c-0.7-1-1.6-1.8-2.7-2.4l2.5-1.8c1.4-1,1.6-2.9,0.6-4.2c-0.6-0.7-1.5-1.2-2.5-1.2c-0.7,0-1.4,0.2-1.9,0.6
			l-0.1,0.1c-0.6-0.5-1.3-0.7-2-0.7c-0.4,0-0.8,0.1-1.1,0.2c-0.9,0.3-1.6,1.1-1.9,1.9c-0.1-0.1-0.1-0.3-0.2-0.4
			c-0.5-0.8-1.2-1.3-2-1.5c-0.2-0.1-0.5-0.1-0.8-0.1c-1.5,0-2.8,1-3.2,2.5l-1,4.2c-0.3-0.1-0.6-0.2-0.8-0.3
			c-0.2-0.1-0.4-0.1-0.6-0.1l0,0c0.1-0.5,0.6-3.5-2.4-4c-1-0.2-2.1,0-2.8-1.4c-0.3-0.6-0.6-1-2-1h-18.5c-1.8,0-3.3,1.5-3.3,3.3
			c0,1.2,0.6,2.2,1.5,2.8c-1.6,0.2-2.9,1.6-2.9,3.3c0,0.6,0.2,1.2,0.4,1.7c-0.5,0.3-0.9,0.8-1.1,1.4c0,0-1.3,2.9-2.4,5.5
			c-1.1,2.5,1.1,4.6,3,4.6h9.6c3.2,0,8.2-2.4,11.2-5.7c0.1-0.1,0.1-0.2,0.2-0.2c0.2,0.7,0.4,1.4,0.8,2.1c1,1.9,2.7,3.2,4.7,3.7
			c0.6,0.2,1.3,0.2,1.9,0.2c2.6,0,5-1.3,6.6-3.4c1,1.6,2.5,2.7,4.3,3.1c0.6,0.2,1.3,0.2,1.9,0.2c1.8,0,3.5-0.6,4.9-1.6
			c0,0,0,0,0,0.1c0.5,0.8,1.2,1.3,2,1.5c0.2,0.1,0.5,0.1,0.8,0.1h6.8c-0.1,0.5-0.1,1,0.1,1.5c0.2,0.9,0.8,1.6,1.6,2
			c1.9,1,3.8,1.6,5.7,1.6c1.8,0,3.2-0.5,4.1-0.9c2.4-1.1,4.2-3.1,4.7-5.3v-0.2c0.6,0.5,1.3,0.8,2.1,0.8c0,0,22.2,0,22.5,0
			c1.3,0,2.5-0.8,3-1.9c0,0,0.3,0.6,1.4,0.6h4.4c0.4,0.6,1.4,1.3,2.8,1.3c0.2,0,0.3,0,0.5,0c1.5,0,2.8-1,3.2-2.5h0.8
			c1.8,0,3.3-1.5,3.3-3.3C-992.3-168.1-993.4-169.3-994.8-169.7z M-1069.7-175.8l0.7-2.9l0.8,2c0,0.1,0.1,0.1,0.1,0.2
			C-1068.6-176.3-1069.2-176.1-1069.7-175.8z"/>
		<g id="Clip-2">
		</g>
		<path id="Fill-24" class="st1" d="M-1065.5-176.8c-0.1,0-0.2,0-0.2,0c-0.3-0.1-0.5-0.3-0.6-0.6l-0.8-2.3c-0.2-0.5,0.1-1,0.5-1.2
			c0.5-0.2,1,0.1,1.2,0.5l0.4,1.1l1.9-1.5c0.4-0.3,1-0.2,1.3,0.2s0.2,1-0.2,1.3l-2.9,2.3C-1065.1-176.8-1065.3-176.8-1065.5-176.8"
			/>
		<path id="Fill-26" class="st2" d="M-1045.1-157.3c-1.4,0-3-0.3-4.8-1.3c-0.6-0.3-0.8-1.1-0.5-1.7c0.3-0.6,1.1-0.8,1.7-0.5
			c2.8,1.5,4.9,1,5.9,0.5c1.3-0.6,2-1.5,2.2-2.2l1.4-5.7c0.2-0.7,0.8-1.1,1.5-0.9c0.7,0.2,1.1,0.8,0.9,1.5l-1.4,5.7
			c-0.4,1.6-1.8,3-3.6,3.9C-1042.5-157.7-1043.7-157.3-1045.1-157.3"/>
		<path id="Fill-28" class="st2" d="M-1042.6-172.8c-1.7,0-3.3,1.2-3.9,2.9c-0.3,1-0.3,2,0.2,2.9c0.4,0.8,1.1,1.3,2,1.5
			c0.3,0.1,0.6,0.1,0.8,0.1c1.7,0,3.3-1.2,3.9-2.9c0.3-1,0.3-2-0.2-2.9c-0.4-0.8-1.1-1.3-2-1.5
			C-1042-172.8-1042.3-172.8-1042.6-172.8 M-1043.4-162.9c-0.5,0-1-0.1-1.5-0.2c-1.5-0.4-2.8-1.4-3.6-2.7c-0.8-1.5-1-3.2-0.4-4.9
			c0.9-2.7,3.5-4.7,6.3-4.7c0.5,0,1,0.1,1.5,0.2c1.5,0.4,2.8,1.4,3.6,2.7c0.8,1.5,1,3.2,0.4,4.9
			C-1038-164.8-1040.6-162.9-1043.4-162.9"/>
		<g>
			<path class="st2" d="M-1037.5-172.4c-0.8-1.4-2-2.4-3.6-2.7c-0.5-0.1-1-0.2-1.5-0.2c-2.8,0-5.4,1.9-6.3,4.7
				c-0.5,1.7-0.4,3.4,0.4,4.9c0.8,1.4,2,2.4,3.6,2.7c0.5,0.1,1,0.2,1.5,0.2c1.1,0,2.2-0.3,3.1-0.8l-0.3,1.3
				c-0.2,0.7-0.9,1.6-2.2,2.2c-1,0.4-3.2,1-5.9-0.5c-0.6-0.3-1.4-0.1-1.7,0.5c-0.3,0.6-0.1,1.3,0.5,1.7c1.8,1,3.5,1.3,4.8,1.3
				c1.4,0,2.6-0.4,3.3-0.7c1.9-0.8,3.3-2.3,3.6-3.9l1.4-5.7c0.1-0.3,0-0.5-0.1-0.8C-1036.6-169.8-1036.8-171.2-1037.5-172.4z
				 M-1039.5-168.3c-0.6,1.7-2.2,2.9-3.9,2.9c-0.3,0-0.6,0-0.8-0.1c-0.8-0.2-1.5-0.7-2-1.5c-0.5-0.9-0.6-1.9-0.2-2.9
				c0.6-1.7,2.2-2.9,3.9-2.9c0.3,0,0.6,0,0.8,0.1c0.8,0.2,1.5,0.7,2,1.5C-1039.3-170.4-1039.2-169.3-1039.5-168.3z"/>
			<path class="st2" d="M-1105.5-170.4c-0.6-0.3-1.4,0-1.6,0.6l-2.4,5.3c-0.3,0.6,0,1.3,0.6,1.6c0.2,0.1,0.3,0.1,0.5,0.1
				c0.5,0,0.9-0.3,1.1-0.7l2.4-5.3C-1104.5-169.5-1104.8-170.2-1105.5-170.4z"/>
			<path class="st2" d="M-1081.2-176.1c0.1,0,0.1,0,0.2,0c0.7,0,1.3-0.6,1.3-1.2c0-0.7-0.6-1.2-1.3-1.2l0,0c-1.5,0-2.5-0.4-2.9-1.2
				c0-0.1,0.1-0.3,0.1-0.4c0.1-0.7-0.4-1.3-1.1-1.4c-0.7-0.1-1.3,0.4-1.4,1.1v0.1c-0.2,0.3-0.3,0.7-0.2,1l0,0
				c-1.5,8-6.3,13.3-12.8,13.9c-0.7,0.1-1.2,0.7-1.1,1.4s0.6,1.1,1.2,1.1h0.1c3.9-0.4,7.3-2.1,10-5.1c2.1-2.3,3.6-5.3,4.6-8.8
				C-1083.7-176.3-1082.5-176.1-1081.2-176.1z"/>
			<path class="st2" d="M-1095.1-172.1c-0.6,0.3-0.8,1.1-0.5,1.7c0.2,0.4,0.7,0.6,1.1,0.6c0.2,0,0.4-0.1,0.6-0.2
				c3.1-1.8,5-5,5.7-9.5c0.1-0.7-0.4-1.3-1.1-1.4c-0.7-0.1-1.3,0.4-1.4,1C-1091.1-176.1-1092.7-173.5-1095.1-172.1z"/>
			<path class="st2" d="M-1098.4-167c0.2,0,0.4,0,0.6-0.2c0.6-0.3,0.9-1.1,0.5-1.7l-1.9-3.7h0.9c0.7,0,1.2-0.6,1.2-1.4
				s-0.6-1.4-1.2-1.4h-1.9l0.7-2.8h1.9c0.7,0,1.2-0.6,1.2-1.4s-0.6-1.4-1.2-1.4h-6.6c-0.7,0-1.2,0.6-1.2,1.4s0.6,1.4,1.2,1.4h2.1
				l-0.7,2.8h-2.1c-0.7,0-1.2,0.6-1.2,1.4s0.6,1.4,1.2,1.4h1.5l-2,8.2c-0.2,0.7,0.3,1.3,0.9,1.5c0.1,0,0.2,0,0.3,0
				c0.6,0,1.1-0.4,1.2-0.9l1.7-7.2l1.7,3.3C-1099.3-167.3-1098.8-167-1098.4-167z"/>
			<path class="st2" d="M-1096.8-174.4c0.2,0.3,0.6,0.4,0.9,0.4s0.6-0.1,0.8-0.3c1.3-1.2,2.2-2.9,2.7-5.1c0.2-0.7-0.3-1.3-0.9-1.5
				c-0.7-0.2-1.3,0.3-1.5,0.9c-0.4,1.6-1,2.9-2,3.8C-1097.2-175.7-1097.2-174.9-1096.8-174.4z"/>
			<path class="st2" d="M-1071.7-180.9c-0.7-0.2-1.4,0.2-1.6,0.9l-1.7,6.5c-0.7-0.8-1.7-1.4-2.9-1.7c-0.5-0.1-1-0.2-1.5-0.2
				c-2.8,0-5.4,1.9-6.3,4.7c-0.5,1.7-0.4,3.4,0.4,4.9c0.8,1.4,2,2.4,3.6,2.7c0.5,0.1,1,0.2,1.5,0.2c2.8,0,5.4-1.9,6.3-4.7
				c0.1-0.2,0.1-0.5,0.2-0.7l2.9-11.2C-1070.6-180.1-1071-180.7-1071.7-180.9z M-1076.3-168.3c-0.6,1.7-2.2,2.9-3.9,2.9
				c-0.3,0-0.6,0-0.8-0.1c-0.8-0.2-1.5-0.7-2-1.5c-0.5-0.9-0.6-1.9-0.2-2.9c0.6-1.7,2.2-2.9,3.9-2.9c0.3,0,0.6,0,0.8,0.1
				c0.8,0.2,1.5,0.7,2,1.5S-1076-169.3-1076.3-168.3z"/>
			<path class="st2" d="M-1050.8-173.8c-0.6-0.7-1.6-1.6-3.5-1.6c-2.7,0-4.5,1.7-5.2,4.7c-0.2,0.8-1,4.3-1.4,6.2
				c-0.2,0.7,0.3,1.4,0.9,1.5c0.1,0,0.2,0,0.3,0c0.6,0,1.1-0.4,1.2-1c0.4-1.9,1.3-5.4,1.4-6.2c0.6-2.4,1.9-2.7,2.8-2.7
				c0.7,0,1.2,0.2,1.6,0.6c0.4,0.5,0.5,1.3,0.2,2.2l0,0l-1.3,5.5c-0.2,0.7,0.3,1.4,0.9,1.5c0.7,0.2,1.3-0.3,1.5-0.9l1.3-5.5
				C-1049.7-171.1-1050-172.7-1050.8-173.8z"/>
		</g>
		<path id="Fill-40" class="st3" d="M-1060.7-167.6c-1.1,3.3-4.7,5.4-7.9,4.6c-3.3-0.8-5-4.2-3.9-7.5s4.7-5.4,7.9-4.6
			C-1061.3-174.4-1059.5-171-1060.7-167.6"/>
		<path id="Fill-42" class="st2" d="M-1063.1-168.6c0-0.2-0.2-0.4-0.3-0.5c-0.8-0.6-3.2-2.6-3.3-2.7c-0.1-0.1-0.3-0.2-0.4-0.2
			s-0.2,0.1-0.2,0.3c0,0-1.2,5.1-1.3,5.5c0,0.2,0,0.3,0.1,0.4c0.1,0.1,0.3,0.1,0.6,0c0.4-0.2,3.5-1.9,4.5-2.4
			C-1063.3-168.2-1063.1-168.3-1063.1-168.6"/>
		<path class="st2" d="M-1017.2-180.9h-14.9c-0.7,0-1.2,0.6-1.2,1.4s0.6,1.4,1.2,1.4h6l-0.7,2.8h-5.7c-0.6,0-1.1,0.4-1.2,1l-2.3,10
			c-0.1,0.4,0,0.8,0.2,1.1s0.6,0.5,1,0.5h14c0.6,0,1.1-0.4,1.2-1l2.3-10c0.1-0.4,0-0.8-0.2-1.1s-0.6-0.5-1-0.5h-5.5l0.7-2.8h6.1
			c0.7,0,1.2-0.6,1.2-1.4S-1016.5-180.9-1017.2-180.9z M-1033.3-165.4l0.5-2.3h11.4l-0.5,2.3H-1033.3z M-1020.6-170.5h-11.4l0.5-2.3
			h11.4L-1020.6-170.5z"/>
		<g>
			<path class="st2" d="M-1001.4-176.5c0.2,0.3,0.6,0.5,0.9,0.5c0.2,0,0.5-0.1,0.7-0.2c0.5-0.4,0.6-1.1,0.2-1.7l-1.8-2.5
				c-0.4-0.5-1.1-0.6-1.7-0.2c-0.5,0.4-0.6,1.1-0.2,1.7L-1001.4-176.5z"/>
			<path class="st2" d="M-996.4-168.2h-1.5l2.8-11.9c0.2-0.7-0.3-1.4-0.9-1.5c-0.7-0.2-1.3,0.3-1.5,0.9l-2.9,12.5h-4.4l-1.9-2.5
				c-0.4-0.6-1.2-0.7-1.8-0.3s-0.7,1.2-0.3,1.8l2.3,3c0.2,0.3,0.6,0.5,1,0.5h4.4l-0.3,1.2c-0.2,0.7,0.3,1.4,0.9,1.5
				c0.1,0,0.2,0,0.3,0c0.6,0,1.1-0.4,1.2-1l0.4-1.8h2.1c0.7,0,1.3-0.6,1.3-1.3S-995.7-168.2-996.4-168.2z"/>
			<path class="st2" d="M-1004.6-173.5l1.8,2.5c0.2,0.3,0.6,0.5,0.9,0.5c0.2,0,0.5-0.1,0.7-0.2c0.5-0.4,0.6-1.1,0.2-1.7l-1.8-2.5
				c-0.4-0.5-1.1-0.6-1.7-0.2C-1004.9-174.7-1005-174-1004.6-173.5z"/>
			<path class="st2" d="M-1013.9-170.4c-0.6-0.3-1.4,0-1.6,0.6l-2.4,5.3c-0.3,0.6,0,1.3,0.6,1.6c0.2,0.1,0.3,0.1,0.5,0.1
				c0.5,0,0.9-0.3,1.1-0.7l2.4-5.3C-1013-169.5-1013.3-170.2-1013.9-170.4z"/>
			<path class="st2" d="M-1006.8-172.6c0.7,0,1.2-0.6,1.2-1.4s-0.6-1.4-1.2-1.4h-1.9l0.7-2.8h2.6c0.7,0,1.2-0.6,1.2-1.4
				s-0.6-1.4-1.2-1.4h-6.6c-0.7,0-1.2,0.6-1.2,1.4s0.6,1.4,1.2,1.4h1.4l-0.7,2.8h-2.1c-0.7,0-1.2,0.6-1.2,1.4s0.6,1.4,1.2,1.4h1.5
				l-2,8.2c-0.2,0.7,0.3,1.3,0.9,1.5c0.1,0,0.2,0,0.3,0c0.6,0,1.1-0.4,1.2-0.9l2.1-8.8H-1006.8z"/>
		</g>
	</g>
</g>
</svg>
