<?xml version="1.0" encoding="UTF-8"?>
<svg width="16px" height="16px" viewBox="0 0 16 16" version="1.1" xmlns="http://www.w3.org/2000/svg" xmlns:xlink="http://www.w3.org/1999/xlink">
    <!-- Generator: Sketch 63.1 (92452) - https://sketch.com -->
    <title>链接@3x</title>
    <desc>Created with Sketch.</desc>
    <g id="视频页" stroke="none" stroke-width="1" fill="none" fill-rule="evenodd" opacity="0.8">
        <g id="链接" transform="translate(-1.000000, -2.000000)" fill="#BDCEF8" fill-rule="nonzero">
            <g id="分组-8" transform="translate(9.478175, 9.948313) rotate(-45.000000) translate(-9.478175, -9.948313) translate(0.478175, 5.948313)">
                <path fill="#556da9" d="M13.6399289,-5.77315973e-14 C15.5663181,-5.77315973e-14 17.0608368,1.74307226 17.0608368,3.82352941 C17.0608368,5.83687505 15.6611835,7.53425147 13.8249698,7.64166458 L13.6399289,7.64705882 L10.4564747,7.64705882 C9.90418994,7.64705882 9.45647469,7.19934357 9.45647469,6.64705882 C9.45647469,6.13422298 9.84251488,5.71155166 10.3398536,5.65378655 L10.4564747,5.64705882 L13.6399289,5.64705882 C14.3876007,5.64705882 15.0608368,4.86185673 15.0608368,3.82352941 C15.0608368,2.8398509 14.4566027,2.08335403 13.7572765,2.00644765 L13.6399289,2 L10.4137779,2 C9.86149319,2 9.41377794,1.55228475 9.41377794,1 C9.41377794,0.487164161 9.79981813,0.0644928393 10.2971568,0.00672773133 L10.4137779,-5.77315973e-14 L13.6399289,-5.77315973e-14 Z M6.64907205,-5.77315973e-14 L6.76569318,0.00672773133 C7.26303186,0.0644928393 7.64907205,0.487164161 7.64907205,1 C7.64907205,1.51283584 7.26303186,1.93550716 6.76569318,1.99327227 L6.64907205,2 L3.42292108,2 L3.30557352,2.00644765 C2.60624729,2.08335403 2.00201323,2.8398509 2.00201323,3.82352941 C2.00201323,4.80720792 2.60624729,5.56370479 3.30557352,5.64061117 L3.42292108,5.64705882 L6.6063753,5.64705882 L6.72299643,5.65378655 C7.22033511,5.71155166 7.6063753,6.13422298 7.6063753,6.64705882 C7.6063753,7.15989466 7.22033511,7.58256598 6.72299643,7.64033109 L6.6063753,7.64705882 L3.42292108,7.64705882 L3.23788018,7.64166458 C1.40166647,7.53425147 0.00201322995,5.83687505 0.00201322995,3.82352941 C0.00201322995,1.81018378 1.40166647,0.112807351 3.23788018,0.00539424767 L3.42292108,-5.77315973e-14 L6.64907205,-5.77315973e-14 Z M9.8732098,2.82352941 C10.4254945,2.82352941 10.8732098,3.27124466 10.8732098,3.82352941 C10.8732098,4.33636525 10.4871696,4.75903657 9.98983093,4.81680168 L9.8732098,4.82352941 L6.64705882,4.82352941 C6.09477407,4.82352941 5.64705882,4.37581416 5.64705882,3.82352941 C5.64705882,3.31069357 6.03309901,2.88802225 6.5304377,2.83025714 L6.64705882,2.82352941 L9.8732098,2.82352941 Z" id="形状"></path>
            </g>
        </g>
    </g>
</svg>